<svg width="600" height="500" viewBox="0 0 600 500" fill="none" xmlns="http://www.w3.org/2000/svg">
<path d="M70.2003 469.788C71.3373 465.684 68.3562 461.587 65.0226 458.625C61.689 455.663 57.7093 453.024 55.9618 449.1C53.1275 442.743 56.8324 434.473 52.0324 429.183C49.2086 426.07 44.1736 425.05 41.6624 421.721C40.5036 419.881 39.731 417.86 39.3841 415.763C36.6681 405.188 30.8784 395.471 22.6197 387.625C22.1229 397.062 24.4302 406.446 29.2994 414.792C31.2505 418.124 33.6421 421.37 34.305 425.092C35.3813 431.145 31.7015 437.403 33.3757 443.342C35.289 450.134 43.7225 454.643 44.1652 461.652C44.5386 467.565 38.8974 472.796 39.3547 478.709C39.709 481.223 40.7157 483.624 42.2918 485.714C47.375 493.297 54.8016 498.493 66.0107 498.272L79.7437 498.64L70.2003 469.788Z" fill="#F5F5F5"/>
<path d="M82.5297 498.953C83.7849 499.121 85.0627 499.089 86.3059 498.859C87.826 498.648 89.3189 498.299 90.7619 497.816C92.7512 497.176 94.6084 496.237 96.2563 495.039C97.2464 494.304 98.0194 493.356 98.5053 492.281C98.9142 491.071 99.1263 489.814 99.1347 488.548C99.1495 487.198 99.2483 485.849 99.4305 484.509C99.6886 483.083 100.249 481.717 101.082 480.486C102.684 477.892 105.357 475.432 106.205 471.917C106.842 468.279 106.691 464.563 105.762 460.977C104.738 457.113 104.824 453.075 106.01 449.249C107.457 445.337 110.447 441.797 111.926 437.388C113.394 432.936 112.668 428.157 112.956 423.442C113.038 421.047 113.631 418.69 114.701 416.501C115.798 414.285 117.326 412.195 118.515 409.862C120.924 405.147 121.32 399.815 121.954 394.589C122.263 391.955 122.575 389.295 122.889 386.609C123.073 383.906 123.565 381.228 124.358 378.617C125.269 375.981 126.35 373.395 127.595 370.874C128.24 369.569 128.764 368.217 129.162 366.832C129.386 365.408 129.526 363.973 129.582 362.535C129.713 359.65 129.573 356.76 129.162 353.897C128.77 351.019 128.18 348.175 127.824 345.28C127.8 345.11 127.78 344.939 127.759 344.782L127.683 344.21L127.121 344.469C124.218 345.832 121.701 347.787 119.765 350.18C117.878 352.517 116.365 355.085 115.272 357.809C113.345 363.14 111.948 368.618 111.099 374.177C110.269 379.482 108.389 384.607 105.55 389.304C104.061 391.535 102.252 393.574 100.672 395.75C98.9856 397.872 97.839 400.309 97.3158 402.883C96.5374 408.168 99.7661 412.79 99.1284 417.468C98.8257 419.765 97.9852 421.976 96.6633 423.953C95.4297 425.954 93.9759 427.809 92.5955 429.675C91.1882 431.496 89.9664 433.431 88.9451 435.454C87.9921 437.438 87.4345 439.56 87.2983 441.721C86.9899 445.93 87.6717 449.922 87.357 453.693C86.9989 457.283 85.8691 460.775 84.0318 463.969C82.3891 467.05 80.5598 469.836 79.0304 472.537C78.2707 473.834 77.5838 475.166 76.9723 476.527C76.4278 477.803 76.0319 479.128 75.7912 480.479C75.397 482.839 75.3779 485.239 75.7346 487.604C76.1162 490.903 77.496 494.041 79.7206 496.67C80.0584 497.061 80.4325 497.425 80.8388 497.759C81.1121 498.018 81.4152 498.249 81.743 498.449C82.257 498.79 82.5318 498.945 82.5318 498.945C81.549 498.243 80.6528 497.446 79.8591 496.568C77.7266 493.933 76.4214 490.82 76.0828 487.562C75.7594 485.228 75.8039 482.863 76.215 480.54C76.4627 479.219 76.8614 477.925 77.4045 476.679C77.9814 475.388 78.6989 474.078 79.473 472.743C81.0171 470.073 82.8675 467.29 84.5437 464.191C86.4336 460.944 87.6026 457.39 87.9843 453.733C88.322 449.88 87.6591 445.877 87.9843 441.765C88.1231 439.674 88.6709 437.623 89.6018 435.707C90.6135 433.725 91.8213 431.829 93.2102 430.045C94.5885 428.191 96.0591 426.328 97.3284 424.285C98.7101 422.226 99.5893 419.922 99.9067 417.527C100.536 412.544 97.3325 407.89 98.1277 402.977C98.6412 400.513 99.7505 398.183 101.375 396.156C102.93 394.018 104.749 391.978 106.282 389.693C109.181 384.921 111.105 379.71 111.959 374.314C112.806 368.803 114.194 363.371 116.105 358.083C117.168 355.428 118.641 352.923 120.481 350.645C122.335 348.352 124.747 346.479 127.528 345.171L126.898 344.855C126.919 345.013 126.942 345.185 126.963 345.358C127.326 348.278 127.918 351.137 128.304 353.981C128.711 356.8 128.851 359.646 128.724 362.487C128.67 363.882 128.538 365.273 128.327 366.655C127.941 367.99 127.433 369.294 126.81 370.553C125.556 373.099 124.467 375.711 123.55 378.373C122.743 381.026 122.242 383.749 122.054 386.496C121.744 389.184 121.436 391.847 121.131 394.484C120.502 399.733 120.11 404.974 117.791 409.53C116.646 411.796 115.121 413.894 113.992 416.183C112.888 418.453 112.278 420.897 112.196 423.379C111.928 428.197 112.647 432.902 111.24 437.178C109.832 441.454 106.87 444.998 105.382 449.026C104.18 452.949 104.108 457.086 105.172 461.042C106.105 464.556 106.279 468.202 105.682 471.776C104.91 475.133 102.315 477.572 100.679 480.24C99.8264 481.522 99.2564 482.943 99.0004 484.423C98.8281 485.781 98.7399 487.146 98.736 488.512C98.7432 489.739 98.5538 490.959 98.1738 492.136C97.7199 493.16 96.9941 494.066 96.0612 494.774C94.4551 495.964 92.6441 496.904 90.7011 497.558C89.2792 498.055 87.8081 498.426 86.308 498.666C85.3863 498.82 84.4526 498.907 83.5157 498.926C82.8591 498.941 82.5297 498.953 82.5297 498.953Z" fill="#E0E0E0"/>
<path d="M124.996 351.673C124.933 351.794 124.889 351.923 124.866 352.055C124.786 352.354 124.689 352.724 124.57 353.18C124.305 354.164 123.993 355.659 123.485 357.507C122.977 359.356 121.725 361.457 120.676 364.042C119.445 366.948 118.374 369.909 117.468 372.912C116.44 376.246 115.536 379.948 114.59 383.914C113.781 388.145 112.327 392.254 110.27 396.12C109.159 398.153 107.904 400.213 106.914 402.464C105.941 404.772 105.292 407.182 104.982 409.637C104.321 414.719 103.365 419.765 102.116 424.754L94.5319 453.64C92.1424 462.493 89.9878 470.473 88.1731 477.196C86.4067 483.86 84.9717 489.277 83.9584 493.095C83.4927 494.929 83.1256 496.373 82.857 497.429L82.5927 498.56C82.5519 498.687 82.5314 498.82 82.5319 498.952C82.6003 498.832 82.6504 498.704 82.6808 498.571C82.7731 498.275 82.8906 497.911 83.0312 497.459C83.3374 496.416 83.7591 494.98 84.2899 493.162L88.7752 477.332L95.3186 453.817C97.6746 444.931 100.261 435.172 102.976 424.926C104.229 419.916 105.184 414.849 105.835 409.746C106.131 407.351 106.756 404.999 107.696 402.746C108.653 400.553 109.886 398.504 111 396.452C113.067 392.523 114.517 388.35 115.307 384.055C116.222 380.08 117.089 376.389 118.07 373.061C119.052 369.733 120.097 366.767 121.14 364.2C122.134 361.623 123.326 359.501 123.821 357.586C124.284 355.678 124.536 354.214 124.746 353.21C124.832 352.747 124.901 352.373 124.956 352.066C124.99 351.937 125.003 351.805 124.996 351.673Z" fill="#E0E0E0"/>
<path d="M84.9528 498.979C93.892 494.087 96.3738 479.363 92.5766 470.529C88.7793 461.694 82.1814 453.636 81.1136 444.208C80.2933 436.961 82.8591 429.494 80.9562 422.41C78.3884 412.851 68.0604 405.489 68.1191 395.649C68.1506 390.128 71.5744 384.915 71.266 379.401C70.8863 372.638 65.1401 367.299 61.5653 361.358C56.0939 352.264 55.6701 341.481 53.7547 331.262C51.8394 321.042 47.4841 310.112 37.4813 305.132C36.0631 313.823 33.5854 319.784 34.4498 331.544C34.7603 335.767 40.2085 343.827 41.0016 353.083C41.4757 358.614 41.8134 364.156 42.2204 369.693C42.3163 375.1 43.318 380.463 45.1911 385.596C46.8421 389.452 49.4813 392.948 50.7149 396.931C53.0373 404.424 50.0981 412.57 51.9736 420.163C53.568 426.596 58.5086 432.116 59.5492 438.643C61.0177 447.813 54.5394 457.384 57.9401 466.119C59.6184 470.454 63.5793 473.922 64.7226 478.402C65.61 481.879 64.6891 485.565 65.4946 489.06C66.7933 494.684 78.6381 498.998 84.9465 498.619" fill="#E0E0E0"/>
<path d="M40.0051 313.738C39.9982 313.902 40.0123 314.066 40.047 314.228C40.1016 314.592 40.1708 315.063 40.2568 315.654C40.4666 316.907 40.7121 318.748 41.1925 321.126C41.7086 323.518 43.0806 326.207 44.1883 329.452C45.3526 332.694 46.5149 336.419 47.545 340.6C48.575 344.78 49.4792 349.403 50.4107 354.383C51.1662 359.749 52.7467 364.992 55.1058 369.958C56.3814 372.558 57.8079 375.159 58.8821 377.934C59.9339 380.782 60.588 383.739 60.8289 386.734C61.3703 393.102 62.2877 399.438 63.5772 405.716C66.4052 418.567 69.0968 430.81 71.5492 441.954L78.4094 471.467C80.3835 479.823 81.9758 486.601 83.1087 491.35C83.6731 493.654 84.1157 495.462 84.4304 496.748C84.5836 497.32 84.7031 497.789 84.7954 498.148C84.8274 498.309 84.8787 498.467 84.9486 498.619C84.9463 498.454 84.9245 498.291 84.8836 498.13C84.8122 497.768 84.7199 497.301 84.6045 496.715L83.4444 491.287C82.3954 486.519 80.8786 479.729 79.0199 471.352L72.3465 441.805C69.9171 430.667 67.2506 418.428 64.4478 405.58C63.1628 399.32 62.244 393.003 61.6954 386.654C61.4412 383.597 60.7652 380.581 59.6835 377.677C58.5737 374.845 57.1261 372.232 55.8527 369.655C53.5015 364.749 51.9142 359.569 51.1366 354.265C50.1757 349.297 49.2485 344.656 48.1576 340.47C47.0666 336.283 45.8729 332.541 44.6582 329.309C43.4981 326.053 42.0841 323.396 41.5303 321.056C40.9764 318.715 40.7016 316.86 40.433 315.626C40.3093 315.04 40.2107 314.573 40.1372 314.212C40.1116 314.05 40.0673 313.891 40.0051 313.738Z" fill="#EBEBEB"/>
<path d="M244.998 4.17619C252.658 -3.94687 272.573 1.15889 286.222 7.8C286.222 7.8 295.612 11.8263 299.107 13.9147L299.221 13.9395L331.132 10.3157C333.725 10.0202 336.356 10.4395 338.684 11.5192L341.298 12.7322C341.594 12.8698 341.841 13.081 342.009 13.3413C342.178 13.6017 342.262 13.9002 342.25 14.2021C342.239 14.504 342.134 14.7968 341.946 15.0462C341.759 15.2955 341.497 15.4912 341.191 15.6103L317.695 24.7404L317.672 25.0036L340.862 38.8599C340.975 38.9305 341.091 39.001 341.208 39.0678C345.588 41.6146 350.862 42.568 355.98 41.738L368.399 39.7201C369.031 39.6035 369.686 39.6531 370.287 39.8631C370.788 40.0495 371.227 40.35 371.562 40.7355C371.897 41.121 372.118 41.5785 372.202 42.064C372.286 42.5495 372.232 43.0466 372.043 43.5073C371.855 43.9679 371.539 44.3767 371.126 44.6942L356.739 55.6305C355.635 56.4697 354.292 57.0069 352.866 57.1798C351.439 57.3527 349.988 57.154 348.681 56.607L341.945 53.7881L307.858 39.0316L311.77 56.6757C311.804 56.8459 311.796 57.0208 311.746 57.1877C311.696 57.3545 311.605 57.5089 311.48 57.6396C311.355 57.7703 311.2 57.8739 311.026 57.9428C310.851 58.0116 310.662 58.044 310.472 58.0375L308.865 57.9841C307.782 57.9482 306.728 57.6624 305.801 57.1535C304.874 56.6446 304.104 55.9295 303.565 55.0755L289.826 31.2346L249.613 13.827C244.228 11.5707 242.321 7.38994 244.998 4.17619Z" fill="#E0E0E0"/>
<path d="M21.5414 82.2827L122.726 80.1962C122.726 80.1962 113.409 65.575 87.4178 68.2662C62.5953 70.8353 61.0974 61.5221 48.4219 60.6371C35.7463 59.7521 25.4246 68.7811 21.5414 82.2827Z" fill="#F5F5F5"/>
<path d="M494.612 132.022H589.932C589.932 132.022 581.503 118.077 556.968 120.106C533.534 122.044 532.342 113.24 520.428 112.162C508.514 111.084 498.583 119.385 494.612 132.022Z" fill="#F5F5F5"/>
<path d="M79.1646 36.6303H151.88C151.88 36.6303 145.45 25.9935 126.733 27.5403C108.856 29.0184 107.948 22.3086 98.8577 21.4809C89.7675 20.6531 82.1961 26.989 79.1646 36.6303Z" fill="#F5F5F5"/>
<path d="M494.706 175.749H542.272C542.272 175.749 538.076 168.791 525.822 169.804C514.128 170.771 513.535 166.38 507.589 165.838C501.644 165.297 496.689 169.443 494.706 175.749Z" fill="#F5F5F5"/>
<path d="M470.922 56.0482H518.49C518.49 56.0482 514.284 49.0905 502.038 50.1033C490.344 51.0703 489.751 46.6702 483.805 46.1381C477.86 45.6059 472.904 49.7428 470.922 56.0482Z" fill="#FAFAFA"/>
<path d="M591.51 499.05C591.51 499.222 459.085 499.361 295.77 499.361C132.397 499.361 0 499.222 0 499.05C0 498.878 132.395 498.739 295.77 498.739C459.083 498.739 591.51 498.878 591.51 499.05Z" fill="#263238"/>
<path d="M500.87 288.722C500.774 287.89 500.343 287.12 499.659 286.561C498.976 286.002 498.089 285.692 497.169 285.693L469.158 285.72C468.611 285.72 468.071 285.831 467.577 286.044C467.082 286.256 466.646 286.566 466.299 286.95C465.952 287.334 465.703 287.783 465.57 288.266C465.436 288.748 465.422 289.251 465.528 289.738C465.698 290.517 466.164 291.216 466.845 291.712C467.526 292.208 468.378 292.47 469.25 292.451H497.173C497.694 292.45 498.208 292.351 498.684 292.158C499.159 291.966 499.585 291.685 499.933 291.334C500.282 290.982 500.545 290.568 500.707 290.118C500.868 289.668 500.923 289.193 500.87 288.722Z" fill="#263238"/>
<path d="M561.969 490.706C561.714 492.295 561.984 493.918 562.743 495.368C563.503 496.819 564.718 498.032 566.236 498.855C567.754 499.677 569.505 500.072 571.27 499.989C573.035 499.907 574.733 499.35 576.15 498.39C577.566 497.431 578.638 496.11 579.23 494.597C579.822 493.083 579.906 491.444 579.473 489.886C579.04 488.329 578.109 486.923 576.797 485.847C575.486 484.771 573.852 484.072 572.104 483.84C570.943 483.685 569.759 483.74 568.621 484.002C567.483 484.263 566.413 484.726 565.472 485.364C564.531 486.001 563.737 486.801 563.136 487.718C562.535 488.634 562.138 489.65 561.969 490.706Z" fill="#252432"/>
<path d="M568.957 491.926L563.503 481.694L566.358 480.04L571.643 490.721L568.957 491.926Z" fill="#455A64"/>
<path d="M518.488 365.943L484.655 285.689L478.231 288.621L511.021 368.143L518.488 365.943Z" fill="#263238"/>
<path d="M594.646 472.642L548.673 489.246C547.253 489.759 545.667 489.738 544.264 489.188C542.861 488.638 541.756 487.603 541.192 486.313L496.445 383.915C493.459 377.081 493.581 369.449 496.784 362.698C499.988 355.946 506.01 350.628 513.526 347.913C521.043 345.198 529.437 345.309 536.864 348.222C544.29 351.134 550.14 356.609 553.126 363.442L597.873 465.841C598.437 467.131 598.414 468.573 597.809 469.849C597.204 471.124 596.066 472.129 594.646 472.642V472.642Z" fill="#643691"/>
<path d="M541.871 488.686C541.871 488.686 541.796 488.446 541.613 487.99C541.431 487.534 541.139 486.845 540.774 485.972L537.518 478.238L525.405 449.839L507.346 407.751C503.941 399.832 500.366 391.522 496.657 382.909L493.85 376.392C492.867 374.245 492.506 371.905 492.801 369.596C493.122 367.24 494.137 365.006 495.738 363.131C497.34 361.256 499.468 359.808 501.899 358.941C504.33 358.074 506.973 357.819 509.55 358.204C512.126 358.589 514.541 359.599 516.539 361.128C518.483 362.639 519.968 364.578 520.852 366.76L523.666 373.275L534.396 398.108C541.25 413.925 547.424 428.168 552.61 440.142L564.952 468.457L568.345 476.142L569.247 478.135C569.457 478.581 569.578 478.804 569.578 478.804C569.578 478.804 569.503 478.564 569.32 478.108C569.138 477.652 568.848 476.964 568.481 476.09L565.225 468.356L553.114 439.959L535.07 397.869L524.37 373.021C523.443 370.867 522.507 368.694 521.563 366.502C520.633 364.212 519.073 362.176 517.032 360.59C514.928 358.979 512.384 357.914 509.669 357.509C506.955 357.103 504.17 357.371 501.609 358.284C499.048 359.198 496.806 360.723 495.12 362.699C493.433 364.675 492.365 367.028 492.027 369.51C491.718 371.936 492.097 374.393 493.128 376.647L495.942 383.162L506.672 407.991L524.887 450.022L537.231 478.339C538.699 481.656 539.834 484.24 540.623 486.025L541.523 488.016C541.745 488.463 541.871 488.686 541.871 488.686Z" fill="#263238"/>
<path d="M538.642 407.841C538.749 408.144 545.287 405.804 553.244 402.611C558.161 400.844 562.916 398.727 567.466 396.279C567.359 395.973 560.824 398.316 552.862 401.508C547.946 403.275 543.191 405.392 538.642 407.841Z" fill="#263238"/>
<path d="M494.437 285.691L488.588 275.201C487.94 274.026 486.848 273.101 485.513 272.596L476.314 269.123L451.575 238.606L449.267 261.969L465.052 276.754C465.052 276.754 474.925 295.668 482.993 294.707C482.796 293.001 482.246 291.344 481.374 289.822C478.745 285.705 481.546 285.705 481.909 285.722L488.605 285.733L494.437 285.691Z" fill="#FFBE9D"/>
<path d="M454.034 269.548C454.785 270.565 460.907 278.097 460.907 278.097L478.231 266.638L471.937 261.046L454.034 269.548Z" fill="#643691"/>
<path d="M481.37 289.809C481.37 289.809 485.874 292.138 486.436 294.131V295.306L481.034 294.591L481.37 289.809Z" fill="#FFBE9D"/>
<path d="M487.414 292.056C486.613 291.486 485.988 290.739 485.599 289.885C485.422 289.454 485.43 288.978 485.619 288.551C485.808 288.124 486.166 287.777 486.623 287.578C487.56 287.293 488.511 287.906 489.251 288.506C490.179 289.268 491.061 290.074 491.893 290.921C492.286 291.226 492.594 291.611 492.792 292.045C492.99 292.479 493.071 292.949 493.03 293.418C492.906 293.78 492.662 294.098 492.332 294.329C492.001 294.56 491.6 294.693 491.184 294.709C490.767 294.716 490.353 294.646 489.967 294.504C489.581 294.362 489.23 294.15 488.937 293.881C488.353 293.341 487.884 292.707 487.554 292.012" fill="#FFBE9D"/>
<path d="M491.993 291.699C491.193 291.129 490.568 290.381 490.179 289.527C490.003 289.095 490.01 288.62 490.199 288.193C490.389 287.766 490.746 287.419 491.203 287.219C492.14 286.937 493.091 287.549 493.831 288.15C494.759 288.91 495.641 289.715 496.472 290.562C496.866 290.867 497.175 291.253 497.372 291.687C497.57 292.121 497.651 292.592 497.609 293.061C497.486 293.422 497.242 293.74 496.912 293.972C496.582 294.203 496.182 294.336 495.765 294.352C495.349 294.359 494.935 294.289 494.549 294.147C494.163 294.005 493.812 293.793 493.519 293.524C492.934 292.984 492.465 292.35 492.134 291.655" fill="#FFBE9D"/>
<path d="M478.231 273.776C478.218 273.635 479.4 273.691 480.749 274.753C481.386 275.457 481.915 276.238 482.32 277.072C482.929 278.072 483.236 279.201 483.211 280.343C483.024 281.467 482.538 282.532 481.795 283.446C481.296 284.176 480.931 284.975 480.715 285.811C480.525 286.591 480.461 287.392 480.526 288.188C480.301 287.815 480.16 287.405 480.111 286.982C480.062 286.559 480.106 286.131 480.241 285.724C480.402 284.818 480.745 283.947 481.252 283.155C481.907 282.3 482.343 281.322 482.528 280.294C482.541 279.257 482.274 278.233 481.749 277.313C481.391 276.515 480.937 275.756 480.394 275.051C479.949 274.644 479.439 274.301 478.881 274.032C478.481 273.834 478.239 273.82 478.231 273.776Z" fill="#EB996E"/>
<path d="M291.523 166.132L273.139 219.579L327.236 270.959L376.816 259.245L291.523 166.132Z" fill="#F5F5F5"/>
<path d="M291.521 166.132C291.521 166.132 291.66 166.271 291.941 166.567L293.185 167.902L298.01 173.122L315.987 192.615L377.068 259.039L377.41 259.409L376.896 259.529L348.947 266.14L327.318 271.247L327.127 271.293L326.989 271.162L272.944 219.736L272.833 219.633L272.879 219.496C278.584 203.124 283.241 189.742 286.482 180.448L290.21 169.8L291.181 167.04C291.402 166.42 291.519 166.121 291.519 166.121L273.4 219.652L273.339 219.412L327.488 270.746L327.159 270.662L348.786 265.549L376.738 258.947L376.564 259.44L315.96 193.023L298.048 173.34L293.223 168.015L291.964 166.624C291.67 166.308 291.521 166.132 291.521 166.132Z" fill="#263238"/>
<path d="M293.206 201.388C293.893 200.417 294.789 199.582 295.84 198.933C296.891 198.284 298.075 197.834 299.321 197.611C300.567 197.388 301.851 197.396 303.094 197.634C304.337 197.872 305.514 198.336 306.555 198.998C309.941 201.369 311.493 205.882 315.561 207.07C318.498 207.932 321.737 206.675 324.782 207.173C326.538 207.588 328.138 208.428 329.412 209.603C330.686 210.778 331.586 212.245 332.017 213.848C332.831 217.062 332.988 220.384 332.481 223.65L314.879 223.871L293.206 201.388Z" fill="#E0E0E0"/>
<path d="M260.68 171.003L374.676 277.81L328.222 273.53L263.239 211.163L260.68 171.003Z" fill="#F5F5F5"/>
<path d="M260.68 171.003C260.789 172.565 261.741 186.305 263.466 211.144L263.405 211.014L328.465 273.317L328.256 273.223L363.891 276.5L374.71 277.498L374.431 278.022L260.68 171.003L374.922 277.591L375.574 278.201L374.64 278.116L363.822 277.12L328.186 273.83L328.063 273.818L327.977 273.736L263.072 211.298L263.013 211.243V211.168C261.569 186.319 260.77 172.569 260.68 171.003Z" fill="#263238"/>
<path d="M305.294 213.455C301.772 217.136 302.286 223.024 305.294 227.064C308.597 230.953 313.121 233.839 318.268 235.339C322.321 236.754 327.314 237.655 330.668 235.149" fill="#E0E0E0"/>
<path d="M299.361 207.65C299.571 208.542 298.344 209.204 297.343 209.118C296.342 209.032 295.421 208.531 294.416 208.479C291.674 208.34 290.185 211.294 287.944 212.738C286.598 213.534 284.965 213.823 283.389 213.544C281.813 213.266 280.417 212.442 279.496 211.247C278.004 209.131 278.04 206.013 275.68 204.703C274.29 204.089 272.702 203.958 271.214 204.335C269.739 204.714 268.203 204.861 266.674 204.77C265.911 204.704 265.196 204.404 264.648 203.918C264.099 203.432 263.749 202.791 263.657 202.099L262.841 200.936L260.89 171.461L299.361 207.65Z" fill="#E0E0E0"/>
<path d="M354.922 275.655C355.506 275.792 356.115 275.818 356.711 275.733C357.306 275.647 357.876 275.451 358.385 275.157C358.894 274.863 359.332 274.477 359.67 274.023C360.008 273.569 360.24 273.057 360.352 272.518C360.498 271.335 360.142 270.146 359.356 269.194C358.57 268.242 357.413 267.6 356.122 267.399C353.8 267.12 351.396 268.352 349.161 267.711C346.621 266.992 345.57 264.305 344.924 261.959C344.277 259.613 343.382 256.922 340.917 256.016C336.828 254.515 332.525 259.27 328.266 258.221C325.109 257.443 323.884 253.992 321.408 252.045C320.402 251.272 319.196 250.745 317.904 250.514C316.612 250.283 315.276 250.356 314.023 250.725C312.889 250.981 311.861 251.531 311.064 252.307C310.267 253.084 309.735 254.054 309.532 255.1L328.35 273.147L354.922 275.655Z" fill="#E0E0E0"/>
<path d="M323.756 456.155L319.071 480.706C319.071 480.706 290.051 484.623 288.7 489.082L340.728 499.048L349.749 461.07L323.756 456.155Z" fill="#643691"/>
<g opacity="0.6">
<path opacity="0.6" d="M335.636 481.736C336.103 481.97 336.458 482.352 336.635 482.809C336.812 483.267 336.798 483.767 336.595 484.215C336.353 484.647 335.938 484.98 335.436 485.144C334.934 485.308 334.382 485.293 333.893 485.1C333.396 484.851 333.019 484.444 332.834 483.956C332.649 483.469 332.67 482.937 332.892 482.462C333.193 482.033 333.666 481.726 334.211 481.607C334.756 481.488 335.331 481.565 335.814 481.823" fill="white"/>
</g>
<path opacity="0.6" d="M340.73 499.048L341.63 495.26L291.309 487.07C291.309 487.07 288.779 487.543 288.7 489.075L340.73 499.048Z" fill="white"/>
<path d="M318.284 480.303C318.24 480.536 319.486 480.875 320.563 481.865C321.639 482.855 322.081 483.946 322.335 483.898C322.581 483.898 322.522 482.445 321.194 481.276C319.866 480.107 318.278 480.08 318.284 480.303Z" fill="#263238"/>
<path d="M312.351 481.308C312.24 481.52 313.249 482.125 313.887 483.267C314.561 484.393 314.533 485.491 314.789 485.529C315.018 485.611 315.509 484.293 314.686 482.886C313.864 481.478 312.408 481.089 312.351 481.308Z" fill="#263238"/>
<path d="M307.877 486.655C308.097 486.748 308.716 485.661 308.357 484.272C307.998 482.884 306.926 482.151 306.775 482.323C306.588 482.485 307.195 483.311 307.478 484.457C307.761 485.604 307.635 486.584 307.877 486.655Z" fill="#263238"/>
<path d="M320.034 474.814C320.093 475.045 321.33 474.95 322.747 475.314C324.163 475.678 325.186 476.304 325.365 476.13C325.551 475.991 324.658 474.927 322.986 474.521C321.314 474.114 319.952 474.61 320.034 474.814Z" fill="#263238"/>
<path opacity="0.3" d="M322.83 461.019L321.991 465.392L347.613 470.078L348.553 466.172L322.83 461.019Z" fill="black"/>
<path d="M321.07 469.878C321.875 470.253 322.778 470.421 323.68 470.364C324.654 470.393 325.629 470.313 326.582 470.126C327.146 470.016 327.702 469.871 328.245 469.691C328.572 469.6 328.88 469.463 329.16 469.285C329.365 469.153 329.515 468.963 329.587 468.745C329.66 468.526 329.651 468.292 329.561 468.08C329.471 467.894 329.335 467.73 329.163 467.601C328.991 467.473 328.788 467.382 328.57 467.338C328.24 467.272 327.901 467.25 327.563 467.273C326.979 467.288 326.398 467.352 325.826 467.463C324.867 467.657 323.946 467.986 323.099 468.438C321.658 469.222 321.045 470.006 321.123 470.069C321.219 470.166 321.975 469.556 323.397 468.953C324.224 468.604 325.098 468.353 325.996 468.207C326.522 468.124 327.055 468.08 327.589 468.076C328.172 468.049 328.637 468.135 328.73 468.387C328.761 468.48 328.759 468.516 328.61 468.64C328.403 468.767 328.177 468.866 327.939 468.936C327.435 469.114 326.92 469.265 326.397 469.388C325.503 469.597 324.59 469.729 323.67 469.783C322.802 469.758 321.933 469.79 321.07 469.878Z" fill="#263238"/>
<path d="M321.335 470.275C321.416 470.326 322.113 469.596 322.551 468.118C322.95 466.728 322.92 465.266 322.465 463.891C322.398 463.552 322.235 463.234 321.992 462.969C321.75 462.703 321.436 462.499 321.081 462.377C320.848 462.337 320.607 462.358 320.387 462.438C320.167 462.518 319.977 462.654 319.839 462.829C319.641 463.08 319.484 463.355 319.371 463.645C319.158 464.157 319.033 464.695 319 465.242C318.938 466.156 319.125 467.07 319.545 467.902C320.277 469.323 321.274 469.81 321.314 469.728C320.878 469.068 320.486 468.386 320.139 467.685C319.846 466.921 319.74 466.108 319.828 465.303C319.879 464.836 320.002 464.378 320.193 463.943C320.391 463.455 320.693 463.088 320.888 463.18C321.148 463.226 321.498 463.687 321.62 464.134C321.783 464.592 321.899 465.063 321.968 465.541C322.082 466.359 322.067 467.187 321.924 468.002C321.677 469.4 321.205 470.212 321.335 470.275Z" fill="#263238"/>
<path d="M494.727 457.651L483.474 444.3L482.891 443.606L463.722 456.575L481.472 474.303L480.822 492.245C470.935 494.57 469.451 499.061 469.451 499.061L490.011 499.04L508.682 466.354L494.727 457.651Z" fill="#643691"/>
<path opacity="0.6" d="M508.665 466.34L489.994 499.027L469.435 499.048L471.742 496.239L488.452 495.388L505.678 464.49L508.665 466.34Z" fill="white"/>
<path d="M480.946 484.013C481.099 484.204 482.282 483.591 483.872 483.631C485.465 483.631 486.629 484.272 486.788 484.085C486.981 483.944 485.821 482.825 483.887 482.809C481.953 482.794 480.757 483.866 480.946 484.013Z" fill="#263238"/>
<path d="M481.275 479.563C481.485 479.695 482.395 478.592 484.034 478.301C485.672 478.009 486.981 478.682 487.116 478.491C487.185 478.407 486.95 478.095 486.371 477.809C485.596 477.447 484.709 477.335 483.856 477.492C483.002 477.648 482.232 478.063 481.672 478.669C481.26 479.138 481.176 479.504 481.275 479.563Z" fill="#263238"/>
<path d="M481.137 473.843C481.363 473.946 482.062 472.867 483.493 472.415C484.923 471.963 486.22 472.388 486.314 472.178C486.369 472.085 486.104 471.824 485.538 471.631C484.778 471.393 483.952 471.396 483.194 471.638C482.436 471.88 481.79 472.348 481.361 472.966C481.053 473.451 481.03 473.803 481.137 473.843Z" fill="#263238"/>
<path d="M475.636 469.417C475.879 469.495 476.456 468.431 477.734 467.679C478.993 466.895 480.287 466.815 480.3 466.581C480.369 466.363 478.779 466.047 477.23 466.996C475.682 467.946 475.388 469.392 475.636 469.417Z" fill="#263238"/>
<path d="M472.951 465.583C473.053 465.646 473.733 464.894 474.742 463.626L476.477 461.379C476.875 460.921 477.196 460.412 477.43 459.869C477.553 459.49 477.507 459.083 477.304 458.734C477.182 458.537 476.999 458.376 476.779 458.272C476.559 458.167 476.309 458.123 476.062 458.145C475.34 458.272 474.674 458.587 474.144 459.051C472.848 460.072 472.02 461.497 471.822 463.046C471.611 463.919 471.778 464.833 472.29 465.596C472.29 464.775 472.345 463.954 472.453 463.138C472.651 462.289 473.037 461.485 473.586 460.775C473.91 460.364 474.289 459.993 474.715 459.669C475.115 459.33 475.602 459.088 476.131 458.965C476.207 458.952 476.286 458.962 476.355 458.992C476.425 459.023 476.482 459.073 476.519 459.134C476.611 459.299 476.63 459.488 476.574 459.665C476.368 460.126 476.102 460.562 475.781 460.965L474.207 463.309C473.657 464.001 473.232 464.769 472.951 465.583Z" fill="#263238"/>
<path d="M472.216 466.138C472.313 466.138 472.235 465.15 471.119 464.027C470.361 463.283 469.358 462.783 468.26 462.604C467.163 462.424 466.031 462.574 465.035 463.031C464.932 463.115 464.85 463.218 464.795 463.333C464.74 463.448 464.713 463.573 464.716 463.699C464.73 463.914 464.816 464.121 464.964 464.29C465.175 464.519 465.424 464.717 465.702 464.877C466.159 465.172 466.645 465.427 467.154 465.64C468.01 465.997 468.923 466.229 469.858 466.325C470.709 466.498 471.598 466.421 472.399 466.108C472.386 465.976 471.423 466.041 469.963 465.753C469.114 465.585 468.292 465.318 467.517 464.959C467.064 464.75 466.631 464.507 466.221 464.235C466.023 464.117 465.845 463.975 465.69 463.813C465.589 463.649 465.614 463.697 465.648 463.647C465.83 463.545 466.032 463.476 466.244 463.445C466.494 463.39 466.748 463.355 467.005 463.338C467.669 463.292 468.337 463.367 468.969 463.559C469.601 463.75 470.184 464.055 470.685 464.454C471.769 465.329 472.086 466.191 472.216 466.138Z" fill="#263238"/>
<path opacity="0.6" d="M492.27 465.781C492.27 466.22 492.413 466.648 492.681 467.013C492.949 467.377 493.33 467.661 493.775 467.829C494.221 467.997 494.711 468.041 495.184 467.955C495.656 467.87 496.091 467.658 496.432 467.349C496.773 467.039 497.005 466.644 497.099 466.214C497.193 465.784 497.145 465.338 496.96 464.933C496.776 464.528 496.463 464.182 496.062 463.939C495.661 463.695 495.19 463.565 494.708 463.565C494.061 463.565 493.441 463.799 492.984 464.214C492.527 464.63 492.27 465.194 492.27 465.781Z" fill="white"/>
<path opacity="0.3" d="M465.505 458.347L469.451 462.287L486.044 447.348L483.736 444.611L465.505 458.347Z" fill="black"/>
<path d="M414.431 147.277C425.391 143.82 437.219 143.331 448.478 145.871C453.59 146.729 458.254 149.08 461.762 152.566C465.557 156.907 466.03 162.827 466.611 168.345C467.794 179.578 470.07 190.693 473.41 201.562C476.188 210.604 479.704 219.503 481.214 228.792C482.725 238.08 482.024 248.021 476.809 256.129C468.784 268.629 451.718 274.156 435.801 274.396C427.389 274.753 419.012 273.202 411.423 269.884C407.651 268.201 404.322 265.8 401.662 262.843C399.002 259.886 397.074 256.444 396.008 252.749" fill="#D0B58F"/>
<path d="M436.294 158.719C438.018 160.089 439.547 161.648 440.848 163.361C442.2 165.258 443.388 167.249 444.4 169.313C445.632 171.883 447.046 174.378 448.632 176.782C450.265 179.227 452.52 181.279 455.208 182.765C457.447 183.98 460.081 184.448 462.658 184.091C464.387 183.873 466.006 183.194 467.311 182.142C467.662 181.861 467.973 181.54 468.234 181.188C468.411 180.944 468.49 180.807 468.467 180.797C468.402 180.751 468.02 181.255 467.099 181.915C465.783 182.825 464.219 183.392 462.574 183.553C460.142 183.815 457.684 183.322 455.599 182.153C453.048 180.692 450.906 178.712 449.343 176.368C447.777 173.99 446.362 171.533 445.103 169.008C444.043 166.925 442.784 164.932 441.339 163.05C440.354 161.779 439.185 160.634 437.865 159.645C437.404 159.256 436.872 158.943 436.294 158.719Z" fill="#263238"/>
<path d="M459.354 270.448C459.405 270.139 459.418 269.826 459.394 269.514C459.381 268.821 459.364 267.935 459.346 266.844C459.287 264.522 459.155 261.166 458.955 257.021C458.557 248.73 457.839 237.279 456.75 224.655C455.662 212.031 454.399 200.612 453.367 192.367C452.853 188.243 452.406 184.909 452.064 182.609C451.896 181.526 451.762 180.648 451.644 179.962C451.612 179.65 451.542 179.343 451.434 179.046C451.407 179.358 451.418 179.671 451.466 179.981C451.531 180.669 451.615 181.552 451.718 182.651L452.752 192.431C453.631 200.688 454.793 212.101 455.888 224.723C456.983 237.346 457.789 248.778 458.341 257.059C458.613 261.126 458.836 264.454 458.999 266.867L459.209 269.537C459.221 269.844 459.27 270.15 459.354 270.448Z" fill="#263238"/>
<path d="M456.079 219.738C463.554 219.844 471.009 219.003 478.229 217.241C478.183 217.024 473.251 217.743 467.144 218.428C461.037 219.112 456.067 219.518 456.079 219.738Z" fill="#263238"/>
<path d="M460.139 219.629C459.74 220.299 459.506 221.039 459.453 221.8C459.305 222.608 459.215 223.424 459.182 224.243C459.141 224.776 459.237 225.311 459.463 225.805C459.612 226.105 459.85 226.361 460.151 226.545C460.451 226.728 460.803 226.831 461.164 226.842C461.369 226.844 461.571 226.804 461.757 226.727C461.943 226.649 462.108 226.536 462.241 226.394C462.469 226.134 462.602 225.815 462.62 225.482C462.634 224.966 462.556 224.45 462.387 223.957C462.164 223.159 461.863 222.38 461.49 221.63C460.846 220.352 460.248 219.671 460.155 219.723C460.336 220.448 460.597 221.156 460.934 221.834C461.214 222.584 461.446 223.348 461.628 224.123C461.752 224.545 461.808 224.982 461.794 225.42C461.754 225.83 461.525 226.078 461.164 226.078C460.279 226.06 459.922 225.124 459.962 224.252C459.962 223.363 460 222.547 460.046 221.868C460.18 221.128 460.211 220.376 460.139 219.629Z" fill="#263238"/>
<path d="M408.504 151.096L451.412 146.539C461.013 145.519 467.888 137.617 466.766 128.889C465.644 120.16 456.952 113.911 447.351 114.931L404.443 119.488C394.841 120.508 387.967 128.41 389.089 137.138C390.21 145.866 398.903 152.115 408.504 151.096Z" fill="#78471F"/>
<path d="M451.367 115.153C451.367 115.13 451.208 115.052 450.866 114.962C450.362 114.83 449.84 114.76 449.316 114.752C447.358 114.756 445.458 115.355 443.918 116.453C441.559 117.957 439.683 120.004 438.484 122.385C437.149 125.341 436.636 128.551 436.99 131.731C437.176 134.942 438.41 138.031 440.536 140.601C442.282 142.697 444.681 144.267 447.421 145.108C449.247 145.683 451.191 145.879 453.111 145.68C453.628 145.63 454.139 145.537 454.638 145.402C454.978 145.305 455.152 145.244 455.144 145.211C455.125 145.144 454.403 145.312 453.083 145.377C451.226 145.456 449.37 145.189 447.629 144.595C445.047 143.724 442.801 142.187 441.165 140.172C439.172 137.694 438.016 134.741 437.84 131.675C437.495 128.617 437.964 125.527 439.206 122.667C440.325 120.378 442.072 118.389 444.281 116.89C445.705 115.813 447.467 115.169 449.316 115.052C450.633 114.992 451.348 115.225 451.367 115.153Z" fill="#263238"/>
<path d="M421.248 117.575L429.373 116.844C427.208 117.45 425.356 118.746 424.157 120.493C422.974 122.235 422.212 124.185 421.921 126.215C421.344 130.531 422.117 134.907 424.153 138.841C426.189 142.775 429.405 146.107 433.43 148.454L426.891 149.247C426.891 149.247 408.129 134.008 421.246 117.586" fill="#263238"/>
<path d="M412.027 133.216C414.123 133.742 416.324 133.814 418.455 133.429C420.587 133.043 422.59 132.209 424.304 130.995C426.018 129.78 427.396 128.218 428.328 126.433C429.26 124.648 429.72 122.69 429.671 120.714C429.578 117.043 427.753 113.299 429.008 109.807C429.87 107.409 432.081 105.54 432.822 103.11C433.927 99.4863 431.515 95.8148 429.211 92.6869C427.841 90.6127 426.139 88.7352 424.162 87.1158C423.165 86.3122 421.987 85.7177 420.71 85.3746C419.432 85.0315 418.087 84.948 416.771 85.1303" fill="#263238"/>
<path d="M374.777 85.4526C375.003 88.2239 372.989 90.7014 370.959 92.7803C368.928 94.8593 366.673 97.0278 366.232 99.78C365.456 104.655 370.705 109.183 369.622 114.008C369.043 116.594 366.713 118.673 366.297 121.288C366.219 122.566 366.441 123.844 366.947 125.038C367.453 126.232 368.233 127.314 369.234 128.214C371.08 130.138 373.331 131.742 374.966 133.821C376.515 136.114 377.821 138.536 378.868 141.053C379.93 143.586 381.857 145.743 384.366 147.206C388.277 149.136 393.755 148.229 396.744 151.211C399.641 154.101 403.193 154.555 406.764 156.743" fill="#263238"/>
<path d="M421.644 89.6905C421.724 87.1767 419.167 85.2351 416.592 84.312C413.917 83.6779 411.325 82.7827 408.862 81.6418C406.986 80.2102 405.271 78.613 403.743 76.8737C401.62 74.9175 398.964 73.5101 396.045 72.7959C393.127 72.0817 390.052 72.0865 387.137 72.8097C384.221 73.533 381.57 74.9486 379.455 76.9114C377.34 78.8741 375.837 81.3132 375.102 83.9782C374.501 85.747 374.444 87.6315 374.935 89.4279C375.427 91.2243 376.45 92.8643 377.892 94.1707C381.497 96.9324 386.838 96.3183 391.455 95.46C396.073 94.6017 401.297 93.753 405.153 96.2229C407.312 97.9141 409.044 100.01 410.23 102.366C411.43 104.734 413.518 106.635 416.12 107.729C418.808 108.571 422.456 107.117 422.561 104.535" fill="#263238"/>
<path d="M410.739 90.2093C411.892 90.3223 412.956 90.8243 413.721 91.6161C414.485 92.4079 414.896 93.4318 414.87 94.4854L412.109 151.303C411.994 158.015 401.2 161.793 393.301 161.618C385.329 161.448 385.063 157.891 384.964 151.509C384.799 140.844 384.811 136.84 384.807 136.901C384.807 136.901 374.727 135.358 372.666 123.392C371.827 115.52 371.793 107.595 372.566 99.7171C373.082 92.5419 378.331 83.7475 386.202 84.5199L410.739 90.2093Z" fill="#FFBE9D"/>
<path d="M375.058 106.549C375.05 106.95 375.216 107.337 375.52 107.628C375.824 107.918 376.241 108.088 376.682 108.101C376.897 108.117 377.113 108.094 377.317 108.033C377.522 107.971 377.711 107.873 377.874 107.745C378.036 107.616 378.168 107.459 378.263 107.283C378.358 107.107 378.413 106.916 378.425 106.72C378.43 106.321 378.264 105.935 377.961 105.645C377.658 105.355 377.243 105.184 376.804 105.168C376.589 105.152 376.372 105.175 376.167 105.236C375.962 105.297 375.773 105.394 375.61 105.523C375.447 105.652 375.314 105.809 375.22 105.985C375.125 106.161 375.07 106.353 375.058 106.549Z" fill="#263238"/>
<path d="M374.871 104.79C375.081 104.991 376.361 104.132 378.175 104.142C379.99 104.151 381.322 104.977 381.517 104.777C381.614 104.687 381.402 104.327 380.823 103.942C380.039 103.442 379.105 103.176 378.148 103.179C377.205 103.173 376.283 103.44 375.517 103.942C374.968 104.34 374.777 104.701 374.871 104.79Z" fill="#263238"/>
<path d="M393.136 106.972C393.128 107.373 393.294 107.761 393.598 108.051C393.901 108.342 394.319 108.512 394.76 108.525C394.974 108.541 395.19 108.517 395.395 108.456C395.6 108.395 395.789 108.297 395.951 108.168C396.114 108.04 396.246 107.883 396.341 107.707C396.436 107.531 396.491 107.34 396.503 107.144C396.511 106.743 396.345 106.356 396.041 106.065C395.737 105.775 395.32 105.605 394.879 105.592C394.664 105.575 394.448 105.599 394.243 105.66C394.039 105.721 393.849 105.819 393.687 105.947C393.524 106.076 393.392 106.233 393.297 106.409C393.202 106.585 393.148 106.777 393.136 106.972Z" fill="#263238"/>
<path d="M392.724 105.136C392.934 105.336 394.214 104.48 396.029 104.487C397.843 104.495 399.176 105.323 399.371 105.122C399.467 105.033 399.257 104.672 398.676 104.287C397.893 103.788 396.96 103.521 396.004 103.524C395.06 103.518 394.138 103.785 393.373 104.287C392.815 104.684 392.624 105.046 392.724 105.136Z" fill="#263238"/>
<path d="M386.108 117.355C385.151 117.082 384.161 116.918 383.16 116.867C382.696 116.821 382.258 116.738 382.18 116.45C382.142 116.014 382.251 115.578 382.493 115.2L383.871 111.992C385.15 109.275 386.187 106.469 386.972 103.6C385.455 106.217 384.172 108.941 383.135 111.744L381.813 114.971C381.52 115.479 381.434 116.065 381.57 116.625C381.636 116.774 381.74 116.908 381.872 117.015C382.004 117.123 382.161 117.201 382.331 117.245C382.588 117.308 382.852 117.342 383.118 117.346C384.11 117.465 385.115 117.468 386.108 117.355Z" fill="#263238"/>
<path d="M384.805 136.897C390.997 136.994 397.098 135.527 402.427 132.659C402.427 132.659 398.133 140.861 384.966 139.716L384.805 136.897Z" fill="#EB996E"/>
<path d="M386.873 121.344C387.22 120.949 387.672 120.641 388.186 120.449C388.699 120.257 389.259 120.186 389.81 120.245C390.211 120.279 390.6 120.386 390.954 120.559C391.308 120.733 391.62 120.97 391.871 121.256C392.114 121.531 392.257 121.868 392.282 122.22C392.307 122.572 392.211 122.923 392.009 123.224C391.717 123.52 391.334 123.73 390.91 123.827C390.486 123.924 390.039 123.903 389.628 123.768C388.775 123.488 387.991 123.058 387.32 122.503C387.116 122.371 386.941 122.206 386.804 122.015C386.737 121.924 386.702 121.817 386.702 121.708C386.702 121.599 386.737 121.492 386.804 121.401" fill="#EB996E"/>
<path d="M391.447 118.517C391.151 118.5 391.145 120.293 389.454 121.569C387.763 122.845 385.667 122.637 385.65 122.887C385.621 122.999 386.118 123.236 387.004 123.268C388.158 123.285 389.281 122.932 390.178 122.271C391.038 121.635 391.592 120.719 391.724 119.719C391.801 118.952 391.583 118.506 391.447 118.517Z" fill="#263238"/>
<path d="M391.925 102.244C392.101 102.692 393.916 102.485 396.045 102.721C398.179 102.912 399.897 103.484 400.18 103.089C400.306 102.898 400.008 102.473 399.314 102.038C398.388 101.503 397.34 101.167 396.249 101.055C395.158 100.944 394.054 101.059 393.02 101.394C392.236 101.68 391.839 102.031 391.925 102.244Z" fill="#263238"/>
<path d="M375.557 100.015C375.876 100.396 377.129 100.003 378.633 99.9879C380.137 99.925 381.41 100.245 381.704 99.8544C381.832 99.6637 381.633 99.2822 381.075 98.9332C380.328 98.5059 379.458 98.2901 378.576 98.3132C377.695 98.3363 376.84 98.5972 376.122 99.0629C375.593 99.4462 375.417 99.8315 375.557 100.015Z" fill="#263238"/>
<path d="M419.924 129.562C418.106 129.895 416.227 129.831 414.443 129.373C412.658 128.915 411.019 128.078 409.661 126.931C408.303 125.783 407.265 124.358 406.632 122.773C406 121.188 405.792 119.489 406.025 117.817C406.432 114.88 408.176 111.889 407.057 109.108C405.574 105.433 399.908 104.302 398.404 100.633C397.531 98.5002 398.313 96.0055 397.323 93.9171C396.747 92.9834 395.971 92.1646 395.04 91.5093C394.109 90.854 393.043 90.3756 391.904 90.1025C389.623 89.5658 387.449 88.7079 385.459 87.5602C384.483 86.9601 383.766 86.0692 383.434 85.0408C383.102 84.0124 383.175 82.9109 383.641 81.9261C393.464 82.998 403.113 85.1301 412.382 88.2773C414.606 88.8282 416.586 89.9956 418.046 91.6169C419.167 93.5891 419.575 95.8321 419.213 98.0273C418.662 108.769 418.11 119.509 417.557 130.249" fill="#263238"/>
<path d="M427.019 139.503C427.001 138.479 426.769 137.467 426.335 136.522C425.793 135.432 425.031 134.443 424.09 133.607C422.831 132.505 421.396 131.582 419.834 130.868C418.122 130.022 416.143 129.251 414.119 128.198C411.888 127.124 410.008 125.535 408.664 123.592C407.956 122.504 407.576 121.265 407.563 120.001C407.617 118.721 407.816 117.45 408.157 116.207C408.517 114.984 408.61 113.708 408.43 112.452C408.286 111.835 407.994 111.254 407.574 110.751C407.154 110.249 406.616 109.838 406 109.547C404.758 108.876 403.34 108.464 401.997 107.89C400.591 107.376 399.4 106.47 398.594 105.303C397.938 104.133 397.599 102.837 397.606 101.523C397.556 100.266 397.644 99.059 397.629 97.8994C397.659 96.7805 397.481 95.665 397.103 94.5998C396.724 93.6185 396.029 92.7638 395.108 92.1471C393.33 91.1154 391.349 90.4092 389.273 90.0682C387.514 89.7479 385.832 89.1412 384.31 88.2773C383.169 87.5662 382.333 86.5185 381.943 85.3114C381.689 84.5546 381.706 83.744 381.99 82.996C382.09 82.7397 382.244 82.5034 382.443 82.2999C382.476 82.317 382.294 82.5459 382.12 83.0361C381.904 83.7618 381.932 84.5296 382.199 85.2409C382.611 86.3695 383.431 87.3382 384.526 87.9893C386.028 88.7956 387.675 89.3541 389.391 89.639C391.543 89.9657 393.602 90.6789 395.448 91.737C396.466 92.4044 397.239 93.3348 397.667 94.4072C398.08 95.5286 398.281 96.7056 398.261 97.888C398.286 99.08 398.206 100.289 398.261 101.512C398.257 102.727 398.571 103.926 399.176 105.01C399.916 106.066 401.005 106.883 402.287 107.342C403.581 107.897 405.014 108.296 406.351 109.026C407.034 109.382 407.64 109.849 408.138 110.403C408.62 110.972 408.949 111.636 409.097 112.341C409.296 113.68 409.199 115.042 408.811 116.347C408.477 117.548 408.278 118.778 408.215 120.016C408.222 121.18 408.566 122.322 409.212 123.327C410.487 125.192 412.274 126.723 414.396 127.771C416.366 128.824 418.338 129.619 420.06 130.504C421.647 131.257 423.096 132.229 424.357 133.384C425.307 134.266 426.06 135.307 426.574 136.449C426.9 137.169 427.075 137.938 427.09 138.717C427.098 138.918 427.087 139.12 427.057 139.32C427.046 139.436 427.032 139.505 427.019 139.503Z" fill="#263238"/>
<path d="M388.667 147.71C388.461 147.794 388.242 147.852 388.019 147.883C387.754 147.947 387.483 147.989 387.209 148.009C386.838 148.059 386.462 148.081 386.087 148.076C383.668 148.078 381.306 147.405 379.323 146.146C377.934 145.294 376.768 144.175 375.91 142.867C374.999 141.34 374.403 139.673 374.154 137.95C373.916 136.113 373.339 134.326 372.448 132.663C371.144 131.065 369.576 129.661 367.799 128.5C366.106 127.164 364.978 125.333 364.612 123.322C364.245 121.312 364.662 119.248 365.791 117.487C366.861 116.109 367.781 114.64 368.54 113.1C369.05 111.723 369.24 110.264 369.098 108.817C368.84 106.696 368.28 104.615 367.434 102.626C367.106 101.897 366.82 101.153 366.578 100.396C366.712 100.562 366.821 100.744 366.901 100.936C367.09 101.296 367.361 101.836 367.682 102.542C368.634 104.529 369.27 106.63 369.57 108.78C369.751 110.293 369.579 111.824 369.064 113.272C368.323 114.851 367.409 116.358 366.337 117.771C365.298 119.421 364.922 121.347 365.272 123.22C365.622 125.094 366.677 126.799 368.257 128.044C370.088 129.243 371.697 130.7 373.023 132.36C373.947 134.085 374.537 135.942 374.768 137.849C374.989 139.515 375.54 141.13 376.394 142.617C377.195 143.876 378.288 144.961 379.596 145.797C381.492 147.043 383.749 147.756 386.087 147.845C387.748 147.887 388.655 147.639 388.667 147.71Z" fill="#263238"/>
<path d="M426.878 90.6976C426.998 90.8387 427.071 91.0082 427.088 91.1859C427.122 91.4446 427.094 91.7069 427.006 91.955C426.918 92.2031 426.773 92.4312 426.581 92.624C426.291 92.9421 425.933 93.2025 425.528 93.3889C425.123 93.5754 424.68 93.6837 424.227 93.7073C423.052 93.644 421.91 93.3331 420.891 92.7994C419.709 92.2061 418.399 91.8546 417.052 91.7695C415.493 91.7324 413.934 91.8604 412.407 92.151C410.681 92.4906 408.927 92.6967 407.162 92.767C405.177 92.8389 403.241 92.1969 401.773 90.9799C400.451 89.7076 399.4 88.2243 398.672 86.6046C397.997 85.1586 397.153 83.7826 396.155 82.5002C395.296 81.4537 394.12 80.6579 392.771 80.2103C391.422 79.7628 389.958 79.6829 388.56 79.9807C386.657 80.4373 385.018 81.5396 383.98 83.0609C383.62 83.6334 383.298 84.2251 383.015 84.8328C383.015 84.6571 383.05 84.4828 383.116 84.3178C383.266 83.8369 383.477 83.3735 383.745 82.9369C384.242 82.1199 384.912 81.4004 385.717 80.82C386.521 80.2396 387.444 79.8098 388.432 79.5553C389.821 79.2215 391.286 79.248 392.659 79.6316C394.245 80.0682 395.64 80.9477 396.645 82.1454C397.686 83.4522 398.565 84.8594 399.266 86.3414C399.967 87.8878 400.972 89.3057 402.23 90.526C403.572 91.6365 405.34 92.2234 407.154 92.1605C408.883 92.0966 410.603 91.9052 412.298 91.5883C413.875 91.3021 415.485 91.19 417.092 91.2545C418.505 91.363 419.875 91.7538 421.103 92.3989C422.05 92.9232 423.113 93.2489 424.216 93.3525C424.624 93.3422 425.026 93.2577 425.397 93.104C425.769 92.9504 426.102 92.7308 426.379 92.458C426.563 92.2924 426.708 92.095 426.806 91.8775C426.905 91.66 426.954 91.4268 426.952 91.1916C426.946 90.8731 426.832 90.7072 426.878 90.6976Z" fill="#455A64"/>
<path d="M419.523 87.2569C417.347 86.8105 415.407 85.6921 414.036 84.0922C412.664 82.4923 411.944 80.5096 412 78.4817C412.055 76.4538 412.881 74.5059 414.338 72.9695C415.795 71.4332 417.793 70.4033 419.991 70.0552C421.027 69.8247 422.113 69.8556 423.131 70.1446C424.149 70.4337 425.061 70.9699 425.769 71.6955C426.973 73.1889 426.893 75.4166 428.431 76.6334C430.076 77.9342 432.6 77.3734 434.725 77.7911C436.354 78.2124 437.765 79.147 438.706 80.4277C439.646 81.7085 440.055 83.2517 439.858 84.7813C439.591 86.3032 438.888 87.7345 437.82 88.9316C436.752 90.1287 435.357 91.0495 433.774 91.6017C430.576 92.6702 427.076 92.7327 423.834 91.7791C420.62 90.8251 417.564 89.4777 414.75 87.7738" fill="#263238"/>
<path d="M435.325 78.6094C435.187 79.3973 434.857 80.1473 434.36 80.8047C433.26 82.4576 431.748 83.8513 429.944 84.8724C428.141 85.8935 426.098 86.5132 423.981 86.681C423.113 86.7966 422.227 86.7354 421.388 86.5017C421.388 86.3949 422.383 86.4521 423.925 86.2442C425.931 85.9662 427.855 85.3194 429.578 84.3432C431.3 83.367 432.786 82.0818 433.944 80.5663C434.838 79.399 435.216 78.5675 435.325 78.6094Z" fill="#455A64"/>
<path d="M428.357 91.8363C426.671 89.8081 424.553 88.1101 422.128 86.8441C419.703 85.5781 417.021 84.7701 414.245 84.4685C415.073 84.3228 415.925 84.3319 416.75 84.4952C420.813 85.0475 424.498 86.9713 427.071 89.8833C427.642 90.4478 428.08 91.1124 428.357 91.8363Z" fill="#131A46"/>
<path d="M332.764 221.735L311.552 217.981L315.379 222.94L306.265 227.073L298.66 223.831C299.253 225.241 299.995 226.594 300.878 227.872C302.542 230.397 304.759 232.419 306.205 232.522C306.677 234.264 307.649 235.861 309.022 237.149C310.251 238.273 311.782 239.087 313.462 239.51C315.143 239.932 316.915 239.95 318.605 239.56L332.89 234.868L332.764 221.735Z" fill="#FFBE9D"/>
<path d="M311.317 231.429C310.532 232.155 309.497 232.614 308.385 232.73C307.273 232.847 306.15 232.614 305.204 232.07C305.275 231.9 306.628 232.303 308.307 232.112C309.989 231.95 311.204 231.279 311.317 231.429Z" fill="#EB996E"/>
<path d="M314.093 235.547C314.227 235.656 313.317 236.592 311.737 236.96C311.281 237.122 310.792 237.188 310.304 237.155C309.817 237.122 309.344 236.99 308.919 236.77C308.957 236.592 310.165 236.699 311.563 236.356C312.96 236.013 313.963 235.408 314.093 235.547Z" fill="#EB996E"/>
<path d="M319.468 220.936C318.879 221.306 318.259 221.634 317.613 221.916C316.474 222.511 315.01 223.486 313.325 224.531C311.895 225.47 310.308 226.191 308.623 226.667C307.931 226.91 307.179 226.976 306.448 226.858C306.448 226.758 307.258 226.667 308.477 226.257C310.058 225.676 311.558 224.926 312.945 224.023C314.354 223.096 315.839 222.267 317.386 221.544C318.017 221.194 318.731 220.985 319.468 220.936Z" fill="#EB996E"/>
<path d="M448.46 253.826C449.523 254.788 450.382 255.92 450.994 257.166C456.547 266.17 458.79 287.751 437.855 307.007C410.792 331.895 379.113 372.606 379.113 372.606L354.238 468.211L316.665 460.815L336.026 361.446L389.127 271.905L448.46 253.826Z" fill="#263238"/>
<path d="M489.912 438.87L432.029 358.335L414.469 288.823L369.763 308.796L392.185 379.353L463.724 460.365L489.912 438.87Z" fill="#263238"/>
<path d="M354.24 468.211C354.254 468.052 354.283 467.895 354.326 467.74C354.406 467.401 354.513 466.949 354.647 466.369L355.948 461.114C357.117 456.522 358.793 449.936 360.859 441.811C365.076 425.498 370.889 403.017 377.311 378.184L378.78 372.535L378.796 372.468L378.84 372.415C395.248 353.342 410.183 336.461 421.185 324.474C426.692 318.485 431.188 313.701 434.376 310.469C435.948 308.834 437.227 307.608 438.075 306.778L439.055 305.834C439.16 305.722 439.277 305.619 439.403 305.527C439.315 305.651 439.215 305.768 439.103 305.876L438.174 306.858C437.358 307.722 436.109 308.956 434.569 310.621C431.443 313.898 427.004 318.723 421.546 324.744C410.636 336.797 395.773 353.72 379.378 372.794L379.438 372.674C378.973 374.469 378.473 376.39 377.97 378.323L361.331 441.921C359.175 450.027 357.427 456.598 356.21 461.185L354.784 466.415C354.62 466.987 354.492 467.437 354.398 467.771C354.359 467.921 354.307 468.069 354.24 468.211Z" fill="#455A64"/>
<path d="M422.114 279.248C421.844 279.449 421.535 279.603 421.204 279.702C420.335 280.04 419.434 280.304 418.512 280.492C415.444 281.133 412.246 281.048 409.224 280.247C406.202 279.446 403.456 277.954 401.248 275.914C400.582 275.307 399.979 274.645 399.446 273.937C399.224 273.692 399.054 273.411 398.945 273.109C399.041 273.044 399.864 274.158 401.584 275.6C403.811 277.488 406.493 278.874 409.417 279.648C412.34 280.422 415.422 280.561 418.415 280.055C420.727 279.685 422.076 279.145 422.114 279.248Z" fill="#455A64"/>
<path d="M454.038 257.893C431.404 268.732 394.646 275.209 382.902 270.811L382.483 231.16C382.483 231.16 366.379 207.024 366.329 197.899C366.243 184.739 384.253 154.757 384.253 154.757L411.289 148.242C416.727 148.134 422.108 149.269 426.939 151.541C432.002 154.09 436.121 157.946 438.776 162.621C441.432 167.296 442.504 172.582 441.858 177.81L435.048 217.253L454.038 257.893Z" fill="#643691"/>
<g opacity="0.3">
<path opacity="0.3" d="M425.022 151.503C426.589 151.286 427.176 153.622 426.05 154.637C424.751 155.477 423.198 155.93 421.604 155.934C414.564 156.935 409.122 162.419 406.556 168.463C403.99 174.507 403.753 181.121 403.334 187.589C402.914 194.056 402.215 200.715 398.873 206.435C395.751 201.401 393.9 195.798 393.456 190.033C393.012 184.268 393.985 178.485 396.305 173.104C398.626 167.724 402.235 162.881 406.871 158.926C411.506 154.972 417.052 152.005 423.106 150.243" fill="black"/>
</g>
<path d="M426.931 151.54C426.931 151.54 423.041 145.705 409.988 148.24C401.267 149.932 382.218 166.563 387.541 193.299C392.863 220.035 407.101 229.494 407.101 229.494C407.101 229.494 393.994 188.571 401.273 170.713C403.185 165.675 406.595 161.217 411.124 157.832C415.652 154.448 421.124 152.27 426.931 151.54Z" fill="#D0B58F"/>
<g opacity="0.3">
<path opacity="0.3" d="M382.982 239.634C388.222 241.481 393.635 242.896 399.155 243.861C404.776 244.693 410.539 244.143 415.848 242.268C419.403 240.757 422.59 238.613 425.22 235.965C427.85 233.316 429.87 230.216 431.162 226.846C433.702 220.082 434.524 212.882 433.564 205.788C428.636 211.319 429.234 219.52 425.047 225.53C422.186 229.178 418.292 232.054 413.779 233.853C404.188 238.041 393.613 240.026 382.982 239.634Z" fill="black"/>
</g>
<path d="M399.205 199.124C399.205 199.124 397.449 229.228 437.844 223.236L441.914 231.944C441.914 231.944 399.442 240.1 393.421 208.126L399.205 199.124Z" fill="#D0B58F"/>
<path d="M436.007 161.698C437.71 163.993 438.858 166.591 439.374 169.32C439.891 172.049 439.764 174.847 439.002 177.528L428.932 218.477C424.609 229.997 412.292 236.991 404.639 237.931L332.89 244.797V220.495L399.494 211.5L402.618 178.341C402.893 173.879 405.312 165.863 408.434 162.411C411.923 158.551 417.291 153.302 426.056 154.637C431.427 155.455 433.699 158.703 436.007 161.698Z" fill="#643691"/>
<path d="M438.088 179.126C438.093 179.436 438.068 179.746 438.012 180.051C437.941 180.654 437.821 181.543 437.653 182.683C437.313 184.972 436.779 188.266 435.988 192.325C435.197 196.383 434.158 201.199 432.813 206.509C432.136 209.162 431.418 211.947 430.546 214.811C429.682 217.788 428.504 220.683 427.027 223.453C425.53 226.243 423.472 228.754 420.96 230.857C418.606 232.789 415.943 234.383 413.062 235.587C408.182 237.576 402.97 238.807 397.642 239.228C393.119 239.65 389.445 239.673 386.913 239.696L383.995 239.684C383.655 239.695 383.314 239.679 382.978 239.635C383.313 239.582 383.653 239.557 383.993 239.56L386.907 239.455C389.435 239.358 393.102 239.265 397.59 238.793C402.847 238.316 407.983 237.058 412.793 235.07C415.608 233.878 418.209 232.306 420.509 230.409C422.955 228.348 424.959 225.892 426.419 223.165C427.875 220.43 429.041 217.574 429.902 214.638C430.776 211.796 431.506 209.013 432.209 206.37C433.583 201.077 434.674 196.277 435.52 192.235C436.365 188.194 436.978 184.907 437.397 182.638C437.607 181.549 437.762 180.679 437.884 180.023C437.923 179.719 437.991 179.419 438.088 179.126Z" fill="#263238"/>
<path d="M401.429 218.479C400.139 216.197 399.265 213.74 398.842 211.203C400.132 213.485 401.005 215.942 401.429 218.479Z" fill="#263238"/>
<path d="M405.509 217.546C402.78 216.159 400.579 214.051 399.194 211.502C401.287 213.527 403.392 215.542 405.509 217.546Z" fill="#263238"/>
<path d="M339.14 219.658C339.236 219.622 339.337 219.598 339.44 219.587L340.329 219.438L343.77 218.918L356.531 217.098L399.448 211.201L399.161 211.476L399.904 204.4C400.768 195.792 401.674 187.604 402.119 180.126C402.423 176.567 403.171 173.052 404.349 169.647C405.284 166.635 406.879 163.826 409.04 161.389C412.252 157.898 416.659 155.488 421.556 154.544C422.893 154.368 424.253 154.39 425.582 154.608C426.033 154.698 426.369 154.799 426.595 154.849C426.712 154.87 426.826 154.904 426.933 154.952C425.182 154.59 423.372 154.533 421.598 154.782C416.811 155.802 412.526 158.225 409.403 161.677C407.316 164.083 405.781 166.845 404.888 169.8C403.749 173.171 403.031 176.647 402.746 180.164C402.327 187.644 401.448 195.849 400.583 204.455C400.325 206.879 400.074 209.271 399.837 211.531L399.809 211.771L399.547 211.806L356.596 217.503L343.799 219.135L340.342 219.547L339.444 219.639C339.344 219.658 339.242 219.664 339.14 219.658Z" fill="#263238"/>
<path d="M380.206 239.495C380.02 239.512 379.258 233.997 378.509 227.176C377.76 220.356 377.303 214.811 377.489 214.794C377.676 214.777 378.438 220.293 379.189 227.115C379.94 233.937 380.393 239.478 380.206 239.495Z" fill="#FAFAFA"/>
<path d="M432.727 202.523C431.211 202.649 429.686 202.671 428.167 202.588C425.349 202.548 421.453 202.45 417.163 202.303C412.873 202.157 408.981 201.991 406.164 201.836C404.641 201.814 403.123 201.687 401.622 201.455C403.14 201.33 404.667 201.309 406.189 201.392C409.006 201.432 412.902 201.529 417.186 201.676C421.47 201.823 425.368 201.989 428.177 202.141C429.702 202.164 431.223 202.291 432.727 202.523Z" fill="#FAFAFA"/>
<path d="M387.182 194.777C386.211 195.008 385.212 195.127 384.209 195.132C382.365 195.254 379.804 195.336 376.984 195.287C374.164 195.237 371.609 195.062 369.771 194.875C368.769 194.834 367.776 194.679 366.815 194.413C367.811 194.326 368.815 194.333 369.809 194.436C371.649 194.512 374.19 194.615 376.997 194.667C379.804 194.718 382.346 194.705 384.19 194.693C385.188 194.626 386.191 194.654 387.182 194.777Z" fill="#FAFAFA"/>
<path d="M393.108 166.449C393.01 166.607 390.253 165.293 386.678 164.068C383.103 162.844 380.085 162.15 380.127 161.97C384.791 162.479 389.248 164.017 393.108 166.451V166.449Z" fill="#FAFAFA"/>
<path d="M445.218 240.868C445.036 240.98 444.839 241.069 444.631 241.134L442.902 241.782C441.398 242.339 439.195 243.087 436.453 243.956C422.136 248.466 407.323 251.549 392.273 253.151C389.389 253.453 387.048 253.651 385.426 253.744L383.559 253.845C383.342 253.873 383.121 253.873 382.904 253.845C383.111 253.779 383.327 253.739 383.546 253.727L385.401 253.51C387.012 253.342 389.341 253.079 392.213 252.722C397.957 252.014 405.864 250.834 414.486 249.043C423.109 247.252 430.789 245.179 436.304 243.544C439.061 242.728 441.285 242.047 442.808 241.559L444.581 241.021C444.784 240.943 444.999 240.892 445.218 240.868Z" fill="#FAFAFA"/>
<path d="M440.943 169.533C440.943 169.704 433.202 169.617 423.671 169.342C414.14 169.067 406.411 168.695 406.42 168.524C406.428 168.352 414.159 168.44 423.694 168.715C433.229 168.989 440.949 169.363 440.943 169.533Z" fill="#FAFAFA"/>
<path d="M348.498 243.033C347.992 239.083 347.712 235.112 347.659 231.136C347.378 227.166 347.324 223.186 347.498 219.211C348.005 223.162 348.285 227.134 348.337 231.111C348.619 235.08 348.673 239.059 348.498 243.033Z" fill="#FAFAFA"/>
<path d="M201.731 121.056C213.406 119.073 225.464 120.216 236.439 124.346C241.312 126.19 246.133 128.803 248.768 132.963C251.883 137.883 251.369 143.941 251.034 149.611C250.351 161.148 250.793 172.717 252.355 184.182C253.654 193.719 255.731 203.221 255.695 212.833C255.66 222.446 253.295 232.413 246.674 239.901C236.457 251.446 218.252 254.679 202.096 252.72C193.523 251.915 185.304 249.186 178.18 244.776C174.643 242.551 171.674 239.659 169.476 236.297C167.278 232.936 165.902 229.184 165.441 225.295" fill="#D0B58F"/>
<path d="M221.959 135.677C223.475 137.305 224.763 139.099 225.792 141.017C226.843 143.125 227.712 145.305 228.391 147.536C229.208 150.308 230.222 153.03 231.425 155.684C232.671 158.386 234.613 160.776 237.089 162.653C239.153 164.191 241.74 165.03 244.409 165.026C246.195 165.041 247.947 164.577 249.443 163.691C249.847 163.455 250.215 163.173 250.539 162.851C250.748 162.63 250.86 162.506 250.839 162.487C250.78 162.434 250.308 162.888 249.265 163.429C247.78 164.169 246.102 164.526 244.411 164.463C241.904 164.392 239.498 163.552 237.584 162.079C235.246 160.248 233.409 157.947 232.22 155.358C231.033 152.733 230.011 150.049 229.159 147.319C228.434 145.063 227.493 142.87 226.346 140.765C225.564 139.342 224.576 138.021 223.408 136.836C223.003 136.376 222.512 135.984 221.959 135.677Z" fill="#263238"/>
<path d="M226.587 251.982C226.691 251.676 226.757 251.361 226.784 251.042C226.887 250.34 227.019 249.44 227.18 248.33C227.51 245.972 227.938 242.556 228.439 238.33C229.425 229.879 230.615 218.187 231.628 205.254C232.641 192.321 233.275 180.587 233.613 172.096C233.783 167.85 233.887 164.412 233.929 162.037C233.942 160.917 233.95 160.01 233.957 159.3C233.979 158.982 233.963 158.662 233.908 158.346C233.828 158.659 233.786 158.979 233.783 159.3C233.734 160.008 233.669 160.912 233.592 162.029L233 172.075C232.507 180.557 231.773 192.273 230.764 205.204C229.755 218.136 228.666 229.821 227.827 238.282C227.422 242.438 227.09 245.837 226.851 248.303C226.755 249.419 226.677 250.325 226.616 251.03C226.568 251.346 226.558 251.665 226.587 251.982Z" fill="#263238"/>
<path d="M231.769 200.188C239.32 201.331 247.009 201.513 254.615 200.728C254.602 200.503 249.49 200.549 243.194 200.394C236.898 200.24 231.792 199.963 231.769 200.188Z" fill="#263238"/>
<path d="M235.897 200.64C235.386 201.263 235.028 201.978 234.848 202.738C234.565 203.536 234.337 204.35 234.167 205.174C234.035 205.708 234.043 206.263 234.19 206.795C234.289 207.12 234.487 207.412 234.761 207.639C235.035 207.867 235.373 208.02 235.738 208.08C235.945 208.111 236.156 208.099 236.357 208.047C236.558 207.994 236.745 207.902 236.902 207.777C237.177 207.546 237.365 207.241 237.439 206.907C237.54 206.386 237.546 205.853 237.458 205.33C237.365 204.492 237.191 203.662 236.94 202.851C236.787 202.08 236.433 201.353 235.908 200.732C235.969 201.492 236.114 202.245 236.342 202.978C236.5 203.776 236.607 204.582 236.663 205.391C236.718 205.836 236.701 206.286 236.615 206.726C236.504 207.134 236.231 207.356 235.868 207.298C234.974 207.157 234.773 206.154 234.955 205.284C235.1 204.384 235.278 203.568 235.44 202.883C235.695 202.156 235.849 201.402 235.897 200.64Z" fill="#263238"/>
<path d="M195.111 124.1L239.308 125.427C249.197 125.724 257.479 118.677 257.806 109.686C258.132 100.696 250.38 93.1672 240.49 92.8702L196.294 91.543C186.404 91.246 178.123 98.2933 177.796 107.284C177.469 116.274 185.221 123.803 195.111 124.1Z" fill="#78471F"/>
<path d="M244.515 93.6462C244.528 93.6253 244.371 93.5223 244.041 93.3773C243.553 93.1733 243.036 93.0297 242.506 92.9501C240.523 92.6833 238.499 93.0271 236.755 93.9266C234.112 95.1205 231.867 96.9337 230.252 99.1792C228.405 101.987 227.348 105.165 227.174 108.433C226.823 111.71 227.553 115.008 229.272 117.907C230.69 120.27 232.857 122.192 235.49 123.423C237.243 124.255 239.178 124.72 241.155 124.784C241.687 124.804 242.22 124.78 242.747 124.712C243.108 124.662 243.294 124.622 243.29 124.595C243.29 124.527 242.525 124.596 241.178 124.477C239.281 124.3 237.443 123.773 235.778 122.929C233.309 121.689 231.292 119.822 229.973 117.556C228.37 114.771 227.695 111.621 228.03 108.492C228.193 105.348 229.185 102.285 230.921 99.5607C232.437 97.3968 234.539 95.6235 237.026 94.4111C238.652 93.5169 240.546 93.11 242.441 93.2476C243.798 93.3811 244.484 93.7187 244.515 93.6462Z" fill="#263238"/>
<path d="M213.615 91.9259L221.965 92.3073C219.672 92.6207 217.58 93.6758 216.074 95.2788C214.586 96.8776 213.487 98.7453 212.852 100.758C211.544 105.048 211.595 109.586 212.997 113.851C214.4 118.115 217.099 121.934 220.782 124.866L214.029 124.763C214.029 124.763 197.585 106.738 213.609 91.9221" fill="#263238"/>
<path d="M172.832 77.6328C169.423 70.1372 169.245 57.1029 174.456 50.2501C179.667 43.3973 189.422 38.8713 198.385 37.1204C199.862 36.7206 201.438 36.7385 202.904 37.1719C203.623 37.4131 204.215 37.8931 204.56 38.5153C204.905 39.1376 204.978 39.8557 204.764 40.5249C206.504 39.4134 208.435 38.5718 210.477 38.034C211.502 37.774 212.582 37.7467 213.622 37.9545C214.661 38.1624 215.629 38.599 216.439 39.2261C216.823 39.554 217.132 39.9479 217.348 40.385C217.563 40.8221 217.682 41.2937 217.695 41.7726C217.709 42.2515 217.619 42.7281 217.429 43.175C217.238 43.6218 216.953 44.0299 216.588 44.3757C217.847 43.9579 219.212 43.8839 220.517 44.1628C221.821 44.4417 223.007 45.0613 223.929 45.9454C224.851 46.8294 225.468 47.9393 225.705 49.1383C225.941 50.3373 225.787 51.573 225.261 52.6933C224.038 54.9927 222.338 57.0559 220.255 58.7699C219.424 59.4441 218.809 60.3106 218.477 61.2772C218.144 62.2438 218.107 63.2743 218.367 64.259" fill="#263238"/>
<path d="M174.982 63.889L172.61 109.778C172.514 111.627 172.834 113.475 173.548 115.208C174.261 116.942 175.355 118.526 176.763 119.864C178.171 121.201 179.863 122.265 181.736 122.99C183.61 123.715 185.626 124.087 187.662 124.082C191.524 124.072 195.233 122.711 198.021 120.283C200.81 117.854 202.464 114.544 202.641 111.037C202.815 107.583 202.969 104.703 203.013 104.348C203.013 104.348 215.919 103.799 217.444 92.2749C218.18 86.7057 218.671 75.1247 218.984 64.6424C219.141 59.2127 217.045 53.928 213.111 49.8398C209.178 45.7516 203.696 43.1595 197.755 42.5791L196.532 42.4589C183.244 41.8696 175.272 51.7969 174.982 63.889Z" fill="#FFBE9D"/>
<path d="M203.052 104.188C197.181 103.713 191.597 101.66 187.014 98.2904C187.014 98.2904 189.544 105.509 202.329 105.713L203.052 104.188Z" fill="#EB996E"/>
<path d="M214.369 72.0101C214.323 72.4403 214.094 72.8372 213.73 73.1159C213.367 73.3946 212.898 73.533 212.424 73.5016C212.191 73.4958 211.962 73.4477 211.75 73.3601C211.538 73.2726 211.348 73.1473 211.19 72.9918C211.032 72.8363 210.91 72.6536 210.832 72.4545C210.753 72.2554 210.718 72.044 210.731 71.8327C210.777 71.4029 211.006 71.0065 211.369 70.7276C211.732 70.4488 212.2 70.3095 212.674 70.3394C212.906 70.3452 213.136 70.3933 213.348 70.481C213.56 70.5686 213.751 70.694 213.909 70.8497C214.067 71.0054 214.189 71.1883 214.268 71.3876C214.347 71.5869 214.381 71.7986 214.369 72.0101Z" fill="#263238"/>
<path d="M215.585 70.0418C215.336 70.2326 214.071 69.1759 212.12 68.989C210.169 68.8021 208.635 69.5478 208.448 69.3113C208.356 69.2045 208.631 68.8383 209.302 68.4893C210.209 68.0398 211.247 67.8566 212.273 67.9648C213.288 68.0603 214.244 68.4478 215 69.071C215.552 69.5478 215.707 69.956 215.585 70.0418Z" fill="#263238"/>
<path d="M195.171 70.7398C195.124 71.1699 194.895 71.5664 194.532 71.845C194.168 72.1236 193.7 72.2622 193.226 72.2313C192.993 72.2255 192.764 72.1774 192.552 72.0899C192.34 72.0023 192.15 71.8771 191.992 71.7215C191.834 71.566 191.712 71.3833 191.634 71.1842C191.555 70.9852 191.52 70.7738 191.533 70.5625C191.58 70.1326 191.809 69.7364 192.172 69.4579C192.535 69.1794 193.004 69.0406 193.478 69.071C193.71 69.0771 193.939 69.1253 194.151 69.213C194.363 69.3006 194.553 69.4259 194.711 69.5813C194.868 69.7368 194.99 69.9194 195.069 70.1184C195.148 70.3173 195.183 70.5286 195.171 70.7398Z" fill="#263238"/>
<path d="M196.375 68.4931C196.125 68.6838 194.86 67.6272 192.909 67.4403C190.958 67.2534 189.422 68.001 189.238 67.7626C189.145 67.6558 189.418 67.2915 190.092 66.9406C190.998 66.4911 192.036 66.3078 193.062 66.4161C194.077 66.5121 195.033 66.8995 195.789 67.5223C196.339 67.9991 196.496 68.4073 196.375 68.4931Z" fill="#263238"/>
<path d="M201.896 82.3361C202.959 82.1448 204.044 82.075 205.125 82.1282C205.629 82.1282 206.111 82.0862 206.231 81.7868C206.328 81.323 206.268 80.8431 206.057 80.4116C205.718 79.2673 205.364 78.0695 204.993 76.8183C203.973 73.7625 203.225 70.6373 202.755 67.4727C204.043 70.4449 205.066 73.5064 205.815 76.6276C206.164 77.8864 206.496 79.0886 206.814 80.2343C207.062 80.8112 207.079 81.4493 206.862 82.0366C206.77 82.1874 206.641 82.3172 206.485 82.4163C206.33 82.5154 206.152 82.5812 205.964 82.6088C205.68 82.65 205.391 82.6584 205.104 82.6336C204.025 82.6579 202.948 82.5579 201.896 82.3361Z" fill="#263238"/>
<path d="M196.012 82.9998C196.331 83.0151 196.106 84.9395 197.757 86.4844C199.408 88.0293 201.685 88.0369 201.67 88.3077C201.687 88.4298 201.122 88.632 200.168 88.5614C198.926 88.4563 197.764 87.9558 196.889 87.1481C196.048 86.3726 195.572 85.3303 195.561 84.2415C195.576 83.427 195.867 82.9693 196.012 82.9998Z" fill="#263238"/>
<path d="M197.715 61.5945C197.466 62.058 195.546 61.6384 193.228 61.6632C190.908 61.6479 188.992 62.0752 188.74 61.6136C188.629 61.3924 189.005 60.9709 189.806 60.578C190.87 60.1035 192.039 59.8556 193.224 59.853C194.409 59.8503 195.579 60.093 196.645 60.5627C197.436 60.9537 197.814 61.3733 197.715 61.5945Z" fill="#263238"/>
<path d="M215.478 64.8388C215.088 65.2088 213.8 64.6595 212.18 64.4802C210.573 64.2495 209.164 64.4574 208.899 64.0053C208.786 63.7879 209.048 63.4045 209.692 63.0822C210.55 62.7044 211.511 62.5665 212.455 62.686C213.399 62.8056 214.282 63.1771 214.994 63.7536C215.516 64.2247 215.655 64.6576 215.478 64.8388Z" fill="#263238"/>
<path d="M175.006 72.5346C174.796 72.4278 166.564 69.3342 165.905 77.2513C165.246 85.1684 174.124 84.1347 174.158 83.9096C174.192 83.6845 175.006 72.5346 175.006 72.5346Z" fill="#FFBE9D"/>
<path d="M171.747 80.7283C171.71 80.7016 171.588 80.816 171.328 80.9038C170.955 81.0201 170.548 81.0002 170.191 80.8485C169.656 80.4853 169.236 79.9993 168.976 79.4402C168.716 78.8811 168.624 78.2692 168.71 77.6671C168.744 76.987 168.945 76.3224 169.297 75.7217C169.4 75.4803 169.565 75.2652 169.779 75.0948C169.993 74.9243 170.25 74.8037 170.526 74.7433C170.704 74.7135 170.888 74.741 171.046 74.8211C171.203 74.9012 171.325 75.0288 171.391 75.182C171.487 75.4108 171.42 75.5634 171.466 75.5825C171.512 75.6015 171.663 75.4623 171.622 75.1305C171.589 74.9313 171.482 74.7483 171.319 74.6117C171.094 74.4307 170.799 74.3375 170.499 74.3523C170.138 74.3936 169.794 74.5181 169.5 74.714C169.206 74.9099 168.973 75.1708 168.821 75.4719C168.394 76.1321 168.15 76.8772 168.112 77.6423C168.011 78.3439 168.14 79.057 168.483 79.6922C168.826 80.3273 169.367 80.8563 170.04 81.2127C170.268 81.2908 170.514 81.321 170.757 81.3012C171 81.2814 171.235 81.212 171.445 81.0983C171.716 80.919 171.777 80.7435 171.747 80.7283Z" fill="#EB996E"/>
<path d="M225.794 50.0956C225.947 60.4292 211.685 63.746 206.073 57.5855C203.474 54.736 201.292 51.2476 197.552 49.7867C196.27 49.3375 194.902 49.1247 193.529 49.1603C192.156 49.196 190.804 49.4796 189.552 49.9945L189.477 50.0232C187.648 50.8769 186.062 52.1045 184.843 53.6096C183.623 55.1147 182.805 56.8562 182.451 58.6974C181.249 63.7174 181.767 68.2548 179.933 72.8112C179.747 73.4914 179.315 74.0954 178.708 74.5278C177.596 75.1457 176.126 74.4343 175.333 73.494C174.188 71.8951 173.582 70.0271 173.589 68.1193C173.186 63.8054 173.73 59.4616 175.19 55.3406C176.672 51.2079 179.454 47.5608 183.192 44.8506C188.016 41.5976 194.042 40.1759 199.998 40.8854C205.924 41.6334 211.441 44.0614 215.762 47.8241C217.851 49.4744 219.454 51.572 220.427 53.9273" fill="#263238"/>
<path d="M217.056 43.8112C217.462 43.7672 217.873 43.8116 218.256 43.9409C219.326 44.248 220.28 44.8215 221.011 45.5964C222.117 46.7474 222.761 48.2061 222.836 49.7333C222.851 51.6096 222.104 53.425 220.738 54.8314C219.414 56.2372 217.686 57.2805 215.747 57.8449C214.187 58.2937 212.557 58.5058 210.922 58.4724C209.83 58.4547 208.741 58.3488 207.67 58.1558C207.27 58.113 206.88 58.0113 206.516 57.8544C206.535 57.7438 208.209 58.0833 210.922 58.0451C212.498 58.0167 214.061 57.7704 215.556 57.3147C217.37 56.7552 218.986 55.7633 220.234 54.4423C221.497 53.1465 222.206 51.4815 222.232 49.7504C222.186 48.3381 221.634 46.9779 220.66 45.8768C220.007 45.1239 219.154 44.5335 218.183 44.1602C217.8 44.0626 217.424 43.9461 217.056 43.8112Z" fill="#455A64"/>
<path d="M211.53 39.7811C211.53 39.7506 211.857 39.7143 212.348 39.9718C212.681 40.1719 212.961 40.4351 213.171 40.7433C213.381 41.0515 213.514 41.3973 213.563 41.757C213.644 42.8179 213.319 43.8715 212.644 44.74C211.917 45.8022 211.029 46.7654 210.005 47.6009C208.15 49.1279 205.906 50.2119 203.476 50.7555C202.492 51.0384 201.452 51.1256 200.428 51.0111C200.415 50.9005 201.586 50.8452 203.35 50.3378C205.648 49.6958 207.765 48.607 209.554 47.147C210.533 46.3473 211.395 45.4372 212.12 44.4386C212.748 43.6787 213.089 42.7537 213.089 41.8028C213.04 41.171 212.719 40.5823 212.195 40.1644C211.813 39.8822 211.518 39.8326 211.53 39.7811Z" fill="#455A64"/>
<path d="M174.634 152.482L178.723 125.36L120.084 136.064L66.7282 119.238L52.3176 132.703L109.095 159.291C114.158 161.488 119.864 162.149 125.371 161.177L174.634 152.482Z" fill="#FFBE9D"/>
<path d="M66.7282 119.246C66.7282 119.246 46.326 110.371 45.019 110.075C44.012 109.846 28.605 109.103 21.5854 108.771C21.0286 108.755 20.4859 108.931 20.067 109.265C19.6481 109.599 19.3844 110.065 19.3292 110.569C19.274 111.073 19.4315 111.577 19.7697 111.979C20.108 112.382 20.6018 112.652 21.1511 112.736C21.2371 112.747 21.3252 112.755 21.4154 112.763C25.3322 113.06 33.9588 114.842 33.9588 114.842L30.042 123.184C29.8465 123.599 29.8108 124.061 29.9407 124.497C30.0705 124.932 30.3583 125.315 30.7574 125.583L42.6295 133.565C44.1856 134.206 45.8998 134.464 47.6001 134.313C49.3005 134.162 50.9274 133.608 52.3176 132.705L57.5498 133.68L66.7282 119.246Z" fill="#FFBE9D"/>
<path d="M29.9812 123.674C30.7303 124.96 31.8098 126.063 33.1279 126.889C34.446 127.715 35.9638 128.239 37.5525 128.418C38.2386 128.438 38.9074 128.22 39.4238 127.809C39.6753 127.6 39.8515 127.326 39.9293 127.024C40.0072 126.723 39.9831 126.407 39.8602 126.117C39.6422 125.764 39.3343 125.463 38.9623 125.24L32.0119 120.333" fill="#FFBE9D"/>
<path d="M32.012 120.337C33.0413 120.838 34.0132 121.432 34.9134 122.108L37.9469 124.166C38.5197 124.578 39.1008 124.929 39.7365 125.448C40.0904 125.748 40.3005 126.162 40.3218 126.602C40.3313 127.046 40.1711 127.48 39.8686 127.828C39.5685 128.138 39.193 128.38 38.7719 128.535C38.3509 128.689 37.896 128.752 37.4434 128.719C36.6574 128.687 35.8852 128.52 35.1672 128.227C33.9784 127.759 32.8837 127.115 31.928 126.32C31.2692 125.801 30.7061 125.19 30.2602 124.51C29.9581 124.012 29.9455 123.678 29.9833 123.678C30.021 123.678 30.1343 123.953 30.4847 124.382C30.9955 124.981 31.5852 125.52 32.2406 125.988C33.1936 126.7 34.2585 127.279 35.4001 127.704C36.0516 127.954 36.7475 128.094 37.4539 128.118C37.8011 128.144 38.1503 128.098 38.4749 127.983C38.7995 127.868 39.0911 127.687 39.3274 127.455C39.5396 127.234 39.6507 126.948 39.6378 126.655C39.6249 126.362 39.489 126.085 39.2581 125.881C38.7546 125.452 38.0959 125.027 37.5609 124.626L34.6238 122.463C33.6785 121.834 32.8036 121.122 32.012 120.337Z" fill="#EB996E"/>
<path d="M46.4644 128.492C46.4036 128.543 46.0071 128.28 45.5791 127.685C45.0397 126.892 44.7318 125.986 44.6844 125.055C44.6371 124.123 44.8519 123.195 45.3085 122.36C45.6756 121.731 46.0449 121.437 46.1099 121.483C45.5603 122.595 45.306 123.808 45.3676 125.026C45.4292 126.243 45.8049 127.431 46.4644 128.492Z" fill="#EB996E"/>
<path d="M38.3078 124.208C38.6199 124.649 39.0804 124.986 39.6206 125.17C40.1607 125.353 40.7516 125.373 41.3052 125.226C41.8588 125.08 42.3454 124.774 42.6925 124.356C43.0397 123.937 43.2288 123.428 43.2316 122.904C43.1205 122.231 42.8584 121.586 42.4614 121.009C42.0643 120.432 41.541 119.936 40.9239 119.551L35.8155 115.355" fill="#FFBE9D"/>
<path d="M35.8175 115.355C36.5975 115.755 37.3174 116.246 37.9595 116.814L40.156 118.53C41.0953 119.214 41.9582 119.981 42.7322 120.819C43.1445 121.298 43.4186 121.863 43.5294 122.463C43.5901 122.847 43.5584 123.239 43.4365 123.611C43.3146 123.984 43.1053 124.327 42.8231 124.619C42.5409 124.91 42.1925 125.143 41.802 125.3C41.4114 125.457 40.988 125.536 40.5609 125.53C39.8573 125.502 39.1906 125.236 38.6916 124.784C38.3539 124.464 38.2721 124.212 38.3098 124.212C38.3476 124.212 38.507 124.376 38.8658 124.609C39.3594 124.936 39.9566 125.108 40.5672 125.099C41.0004 125.085 41.4212 124.964 41.7853 124.75C42.1495 124.536 42.4433 124.237 42.6357 123.884C42.8583 123.444 42.9343 122.954 42.8541 122.475C42.774 121.996 42.5412 121.549 42.1847 121.189C41.4366 120.385 40.6186 119.638 39.7385 118.954L37.6406 117.142C36.9515 116.619 36.3388 116.019 35.8175 115.355Z" fill="#EB996E"/>
<path d="M47.0477 114.653C42.9299 115.544 38.9993 117.039 35.4106 119.08C35.1817 119.18 35.0006 119.352 34.9008 119.564C34.882 119.723 34.9135 119.884 34.9915 120.028C35.0695 120.172 35.1908 120.293 35.3413 120.377C36.4682 121.072 37.8422 121.355 39.1889 121.17C40.5205 120.979 41.8622 120.852 43.2085 120.789C45.5207 121.077 47.7852 121.623 49.9512 122.413C51.0416 122.797 52.2264 122.902 53.3779 122.719C54.5295 122.535 55.6041 122.07 56.4862 121.372" fill="#FFBE9D"/>
<path d="M56.484 121.378C56.5008 121.393 56.4295 121.488 56.2743 121.664C56.0305 121.908 55.7476 122.118 55.4351 122.286C54.2401 122.867 52.873 123.088 51.5309 122.917C49.6091 122.61 47.7236 122.139 45.9001 121.508C44.8422 121.206 43.7355 121.069 42.6274 121.105C41.4777 121.155 40.2756 121.416 38.9728 121.487C37.6614 121.623 36.3391 121.335 35.2385 120.672C34.9224 120.486 34.6896 120.203 34.5819 119.875C34.5291 119.669 34.5675 119.453 34.6889 119.272C34.793 119.128 34.9295 119.005 35.0896 118.912C35.6015 118.616 36.0714 118.368 36.5581 118.118C38.2593 117.248 40.0341 116.502 41.8658 115.889C43.0997 115.473 44.3609 115.128 45.642 114.855C46.1046 114.725 46.5847 114.655 47.0686 114.645C47.098 114.748 45.0966 115.17 42.0504 116.299C40.2627 116.963 38.5277 117.739 36.8581 118.622C36.3966 118.87 35.9015 119.139 35.4504 119.406C35.2406 119.547 35.1819 119.636 35.2133 119.747C35.2949 119.934 35.4426 120.09 35.6329 120.191C36.6108 120.759 37.7749 121 38.9266 120.874C40.1455 120.806 41.3581 120.548 42.5875 120.493C43.7696 120.463 44.9485 120.619 46.0721 120.954C47.8578 121.602 49.6999 122.112 51.5791 122.48C52.8369 122.679 54.1312 122.537 55.3008 122.072C55.7084 121.86 56.1033 121.628 56.484 121.378Z" fill="#EB996E"/>
<path d="M120.995 145.442C119.835 142.344 119.728 139.001 120.686 135.846C120.884 135.873 120.636 138.013 120.73 140.647C120.825 143.281 121.19 145.404 120.995 145.442Z" fill="#EB996E"/>
<path d="M172.303 112.772L155.663 129.819C155.663 129.819 146.774 188.685 146.14 193.303C145.507 197.92 143.818 212.706 143.818 216.747C143.818 220.789 140.13 249.691 140.13 249.691C140.13 249.691 210.733 263.019 222.546 249.691L218.871 224.943L222.07 163.546C222.07 163.546 227.367 120.932 202.645 111.04C202.643 111.042 187.016 119.608 172.303 112.772Z" fill="#643691"/>
<path d="M213.978 117.087C213.978 117.087 209.109 112.713 193.561 116.375C177.175 120.235 168.529 134.18 172.595 173.656C175.952 206.208 190.108 210.894 190.108 210.894C190.108 210.894 182.346 161.789 183.685 141.25C185.363 115.311 213.98 121.765 213.98 121.765C218.052 120.565 213.978 117.087 213.978 117.087Z" fill="#D0B58F"/>
<path d="M172.303 112.772L157.92 116.375L125.564 134.384L134.778 160.982L153.777 159.09L172.303 112.772Z" fill="#643691"/>
<path d="M153.586 131.24C153.772 131.256 152.956 140.765 151.758 152.476C150.561 164.187 149.438 173.671 149.241 173.647C149.044 173.622 149.87 164.124 151.07 152.407C152.27 140.691 153.401 131.225 153.586 131.24Z" fill="#263238"/>
<path d="M219.443 213.902C219.443 213.902 214.847 227.321 198.613 205.164C182.38 183.008 184.664 192.916 184.664 192.916L181.335 196.515C181.335 196.515 199.19 233.079 219.225 227.348L219.443 213.902Z" fill="#D0B58F"/>
<path opacity="0.3" d="M152.931 137.637L140.134 160.45L150.714 159.397L152.931 137.637Z" fill="black"/>
<g opacity="0.3">
<path opacity="0.3" d="M147.059 198.207C156.47 207.525 167.589 215.287 179.921 221.147C185.084 223.6 190.784 225.757 196.564 225.086C199.724 224.582 202.709 223.409 205.278 221.662C207.847 219.914 209.927 217.641 211.35 215.027C214.35 209.889 213.918 207.409 214.633 201.628C215.422 195.26 215.422 186.752 215.793 180.953C215.858 179.924 215.879 178.733 215.879 177.602C215.877 176.375 216.311 175.18 217.116 174.194C217.921 173.209 219.055 172.486 220.348 172.132C218.332 171.252 216.122 170.801 213.886 170.813C212.613 171.101 211.424 171.638 210.402 172.387C209.381 173.136 208.551 174.078 207.97 175.148C200.772 185.939 203.906 201.76 190.169 208.481C185.629 210.591 180.451 211.281 175.436 210.444C164.195 208.777 155.589 202.052 147.296 195.51" fill="black"/>
</g>
<path d="M162.592 175.874C166.031 175.874 168.819 168.247 168.819 158.839C168.819 149.43 166.031 141.803 162.592 141.803C159.153 141.803 156.366 149.43 156.366 158.839C156.366 168.247 159.153 175.874 162.592 175.874Z" fill="#FAFAFA"/>
<path d="M165.924 455.062L167.352 483.099C167.352 483.099 136.482 493.837 136.19 499.042L196.092 498.47L195.838 454.696L165.924 455.062Z" fill="#643691"/>
<g opacity="0.6">
<path opacity="0.6" d="M185.856 480.57C186.434 480.725 186.929 481.068 187.246 481.533C187.564 481.999 187.681 482.554 187.576 483.094C187.428 483.623 187.063 484.08 186.556 484.372C186.049 484.664 185.438 484.769 184.849 484.665C184.239 484.501 183.717 484.138 183.383 483.645C183.05 483.152 182.928 482.564 183.043 481.995C183.259 481.456 183.698 481.014 184.265 480.763C184.833 480.511 185.486 480.47 186.087 480.647" fill="white"/>
</g>
<path opacity="0.6" d="M196.094 498.491L196.068 494.127L138.525 496.271C138.525 496.271 135.869 497.352 136.19 499.055L196.094 498.491Z" fill="white"/>
<path d="M166.375 482.838C166.387 483.103 167.843 483.22 169.301 484.053C170.77 484.86 171.529 486.004 171.798 485.897C172.066 485.842 171.613 484.257 169.838 483.265C168.063 482.274 166.31 482.594 166.375 482.838Z" fill="#263238"/>
<path d="M160.121 485.258C160.056 485.518 161.329 485.956 162.334 487.072C163.383 488.161 163.641 489.374 163.933 489.361C164.208 489.401 164.392 487.835 163.112 486.475C161.833 485.115 160.125 485.007 160.121 485.258Z" fill="#263238"/>
<path d="M156.632 492.121C156.898 492.176 157.291 490.843 156.523 489.393C155.755 487.944 154.381 487.377 154.259 487.6C154.096 487.822 154.993 488.594 155.604 489.792C156.244 490.976 156.34 492.105 156.632 492.121Z" fill="#263238"/>
<path d="M166.832 476.412C166.956 476.655 168.301 476.275 169.95 476.361C171.607 476.416 172.899 476.91 173.048 476.679C173.214 476.489 171.947 475.512 169.998 475.436C168.049 475.36 166.685 476.206 166.832 476.412Z" fill="#263238"/>
<path opacity="0.3" d="M166.213 460.616L166.461 465.613L195.898 465.093L195.88 460.597L166.213 460.616Z" fill="black"/>
<path d="M166.662 470.752C167.648 470.985 168.685 470.971 169.662 470.71C170.741 470.524 171.792 470.22 172.79 469.804C173.382 469.557 173.955 469.274 174.504 468.955C174.839 468.783 175.142 468.564 175.402 468.307C175.592 468.116 175.706 467.873 175.727 467.616C175.749 467.36 175.676 467.104 175.519 466.89C175.371 466.706 175.177 466.556 174.953 466.453C174.729 466.35 174.482 466.295 174.231 466.294C173.85 466.294 173.472 466.345 173.107 466.445C172.468 466.593 171.846 466.794 171.248 467.046C170.242 467.471 169.315 468.036 168.502 468.722C167.126 469.905 166.662 470.902 166.763 470.954C166.897 471.04 167.562 470.201 168.968 469.222C169.785 468.655 170.679 468.186 171.628 467.826C172.185 467.618 172.76 467.452 173.346 467.328C173.975 467.17 174.517 467.16 174.684 467.416C174.745 467.513 174.754 467.551 174.622 467.723C174.426 467.908 174.204 468.068 173.961 468.198C173.453 468.504 172.927 468.784 172.385 469.037C171.46 469.464 170.493 469.811 169.496 470.075C168.535 470.24 167.588 470.467 166.662 470.752Z" fill="#263238"/>
<path d="M167.046 471.129C167.606 470.346 167.873 469.42 167.808 468.488C167.849 467.478 167.699 466.469 167.365 465.505C167.165 464.933 166.903 464.381 166.582 463.857C166.417 463.499 166.152 463.185 165.814 462.947C165.475 462.709 165.075 462.555 164.652 462.499C164.387 462.506 164.129 462.581 163.909 462.716C163.688 462.852 163.515 463.041 163.408 463.262C163.259 463.582 163.159 463.92 163.112 464.265C163.016 464.875 163.022 465.494 163.131 466.102C163.308 467.121 163.76 468.085 164.445 468.907C165.632 470.307 166.855 470.614 166.88 470.523C166.977 470.389 165.951 469.886 165.04 468.537C164.514 467.761 164.18 466.889 164.063 465.983C163.994 465.459 164.007 464.928 164.101 464.406C164.189 463.834 164.422 463.357 164.661 463.414C164.959 463.414 165.47 463.838 165.72 464.297C166.021 464.767 166.275 465.26 166.48 465.77C166.824 466.644 167.031 467.559 167.092 468.486C167.187 470.09 166.884 471.087 167.046 471.129Z" fill="#263238"/>
<path d="M223.964 438.038L248.185 455.448C248.185 455.448 236.856 483.675 240.987 487.29L279.798 445.807L243.284 417.274L223.964 438.038Z" fill="#643691"/>
<g opacity="0.6">
<path opacity="0.6" d="M258.211 441.09C258.718 440.794 259.327 440.679 259.921 440.766C260.516 440.854 261.054 441.137 261.433 441.563C261.777 442.012 261.917 442.565 261.826 443.106C261.736 443.647 261.42 444.136 260.944 444.472C260.406 444.784 259.76 444.903 259.131 444.808C258.501 444.713 257.933 444.408 257.535 443.955C257.23 443.452 257.15 442.861 257.314 442.306C257.477 441.751 257.871 441.276 258.412 440.979" fill="white"/>
</g>
<path opacity="0.6" d="M279.802 445.805L276.162 442.961L240.213 483.862C240.213 483.862 239.374 486.393 240.995 487.295L279.802 445.805Z" fill="white"/>
<path d="M247.325 455.94C247.553 456.106 248.602 455.177 250.262 454.729C251.898 454.246 253.344 454.479 253.43 454.223C253.562 454.004 251.946 453.27 249.96 453.842C247.973 454.414 247.079 455.825 247.325 455.94Z" fill="#263238"/>
<path d="M245.233 461.822C245.407 462.036 246.605 461.452 248.191 461.492C249.779 461.492 250.96 462.104 251.139 461.894C251.348 461.73 250.178 460.582 248.202 460.559C246.225 460.536 245.027 461.652 245.233 461.822Z" fill="#263238"/>
<path d="M248.648 468.722C248.869 468.576 248.019 467.431 246.311 467.006C244.604 466.58 243.232 467.155 243.337 467.387C243.441 467.62 244.644 467.536 246.039 467.902C247.44 468.238 248.439 468.907 248.648 468.722Z" fill="#263238"/>
<path d="M242.288 451.416C242.571 451.488 243.127 450.321 244.289 449.242C245.451 448.162 246.678 447.578 246.584 447.323C246.534 447.083 244.895 447.313 243.553 448.601C242.21 449.888 242.019 451.38 242.288 451.416Z" fill="#263238"/>
<path opacity="0.3" d="M228.767 441.481L233.078 444.588L251.959 424.041L248.208 421.096L228.767 441.481Z" fill="black"/>
<path d="M237.473 447.821C237.563 447.895 238.448 447.201 239.405 445.734C239.959 444.871 240.395 443.95 240.704 442.991C240.887 442.424 241.027 441.845 241.123 441.26C241.2 440.916 241.217 440.564 241.174 440.216C241.139 439.961 241.013 439.724 240.815 439.541C240.616 439.358 240.356 439.24 240.076 439.205C239.826 439.187 239.574 439.222 239.342 439.308C239.109 439.394 238.901 439.528 238.736 439.699C238.487 439.961 238.281 440.255 238.125 440.571C237.829 441.106 237.587 441.665 237.404 442.24C237.092 443.209 236.951 444.216 236.984 445.225C236.917 446.156 237.166 447.083 237.697 447.882C237.857 447.845 237.597 446.838 237.697 445.234C237.762 444.302 237.959 443.38 238.283 442.494C238.475 441.975 238.712 441.471 238.994 440.987C239.279 440.449 239.623 440.073 239.944 440.127C240.066 440.15 240.102 440.169 240.154 440.371C240.18 440.626 240.166 440.882 240.114 441.134C240.036 441.683 239.923 442.227 239.776 442.764C239.525 443.682 239.179 444.576 238.744 445.435C238.259 446.202 237.834 446.999 237.473 447.821Z" fill="#263238"/>
<path d="M238.039 447.805C238.142 447.76 237.718 446.741 236.346 445.551C235.047 444.446 233.438 443.686 231.695 443.356C231.289 443.234 230.855 443.21 230.436 443.286C230.016 443.361 229.625 443.535 229.302 443.789C229.133 443.977 229.027 444.205 228.996 444.446C228.965 444.688 229.011 444.932 229.127 445.15C229.292 445.463 229.504 445.753 229.757 446.013C230.2 446.478 230.719 446.88 231.295 447.205C232.257 447.75 233.353 448.073 234.485 448.143C234.995 448.224 235.518 448.212 236.022 448.107C236.527 448.002 237.003 447.806 237.423 447.531C236.471 447.568 235.517 447.555 234.567 447.491C233.577 447.343 232.634 447.001 231.804 446.487C231.324 446.191 230.892 445.835 230.52 445.429C230.101 444.988 229.86 444.521 230.063 444.395C230.275 444.278 230.512 444.204 230.758 444.178C231.005 444.152 231.254 444.175 231.49 444.246C232.076 444.347 232.652 444.495 233.21 444.689C234.161 445.027 235.056 445.485 235.866 446.051C237.271 447.027 237.903 447.889 238.039 447.805Z" fill="#263238"/>
<path d="M156.804 336.428C156.804 336.428 158.405 269.456 156.804 269.456C155.203 269.456 143.845 263.561 143.845 263.561L129.655 363.096C129.655 363.096 128.375 374.271 143.587 382.144C158.799 390.017 226.803 444.99 226.803 444.99L249.815 419.511C249.815 419.511 205.064 377.109 186.785 363.096C176.255 354.719 166.246 345.816 156.804 336.428Z" fill="#263238"/>
<path d="M198.494 320.825L200.044 310.222C200.044 310.222 211.253 288.789 212.856 279.609C214.459 270.429 213.401 250.683 213.401 250.683H142.622C142.622 250.683 142.924 323.325 151.467 343.708C151.467 343.708 155.803 382.714 156.441 385.981C157.794 392.92 162.51 463.933 162.51 463.933L198.198 462.751C198.198 462.751 201.296 397.463 198.827 378.93C197.6 369.754 197.019 359.974 196.754 351.881C196.411 341.503 196.992 331.117 198.494 320.825Z" fill="#263238"/>
<path d="M144.558 271.865C144.589 271.97 144.605 272.078 144.605 272.186C144.621 272.434 144.644 272.743 144.67 273.126C144.716 274 144.779 275.207 144.856 276.738C144.991 279.876 145.244 284.415 145.601 290.021C146.312 301.232 147.634 316.699 149.587 333.745C151.54 350.79 153.621 366.195 155.132 377.343C155.879 382.874 156.483 387.379 156.909 390.547L157.364 394.14C157.404 394.522 157.438 394.829 157.465 395.077C157.484 395.183 157.487 395.292 157.475 395.399C157.434 395.298 157.408 395.193 157.396 395.086L157.228 394.158C157.085 393.292 156.892 392.096 156.645 390.58C156.166 387.417 155.486 382.928 154.652 377.4C153.017 366.266 150.85 350.866 148.905 333.81C146.961 316.753 145.71 301.272 145.129 290.047C144.835 284.436 144.655 279.891 144.603 276.75C144.575 275.224 144.556 274.007 144.542 273.126C144.542 272.745 144.542 272.432 144.542 272.184C144.532 272.077 144.538 271.97 144.558 271.865Z" fill="#455A64"/>
<path d="M196.679 357.849C196.778 358.195 196.848 358.546 196.889 358.902C197.003 359.648 197.157 360.66 197.35 361.936C197.707 364.576 198.152 368.404 198.557 373.147C199.396 382.628 200.025 395.758 200.273 410.264C200.459 424.777 200.208 437.92 199.643 447.418C199.375 452.167 199.041 456.001 198.76 458.652C198.602 459.931 198.477 460.948 198.384 461.704C198.356 462.059 198.297 462.413 198.208 462.76C198.191 462.404 198.204 462.047 198.248 461.692C198.308 460.941 198.391 459.923 198.496 458.64C198.705 455.991 198.957 452.156 199.161 447.407C199.603 437.914 199.79 424.783 199.593 410.282C199.356 395.786 198.796 382.666 198.078 373.187C197.736 368.448 197.365 364.618 197.088 361.972C196.948 360.692 196.837 359.675 196.754 358.921C196.698 358.566 196.673 358.207 196.679 357.849Z" fill="#455A64"/>
<path d="M210.599 115.588C210.599 115.588 222.183 118.397 224.655 134.088C227.126 149.779 222.557 154.265 222.557 154.265C222.557 154.265 224.445 125.049 210.045 121.063L210.611 116.158" fill="#D0B58F"/>
<path d="M131.671 166.847L71.8681 165.796L72.5646 168.432L131.382 169.22L131.671 166.847Z" fill="#263238"/>
<path d="M204.173 120.516C201.931 120.014 199.57 120.203 197.459 121.052C192.611 122.906 183.745 128.238 183.114 143.281L182.092 167.584L220.337 172.132C220.337 172.132 223.591 125.212 204.173 120.516Z" fill="#643691"/>
<path d="M133.794 171.999L182.277 185.256L183.003 167.507L212.038 171.352L210.418 200.213C210.253 204.332 208.602 208.288 205.721 211.47C202.84 214.653 198.888 216.886 194.474 217.827C189.4 218.909 184.064 218.209 179.533 215.868L128.006 189.233L133.794 171.999Z" fill="#FFBE9D"/>
<path d="M220.343 172.134C220.324 171.996 220.312 171.858 220.31 171.718C220.297 171.421 220.278 171.034 220.255 170.547C220.215 169.489 220.157 167.996 220.081 166.094C219.947 162.218 219.75 156.678 219.513 149.85C219.404 146.432 219.284 142.692 219.156 138.681C219.125 137.678 219.094 136.66 219.064 135.629C219.005 135.121 218.946 134.607 218.887 134.09C218.77 133.581 218.678 133.06 218.539 132.551C217.571 129.223 215.458 126.264 212.509 124.105C209.56 121.946 205.929 120.701 202.146 120.55C199.429 120.526 196.763 121.218 194.47 122.543C192.102 123.913 190.082 125.725 188.543 127.859C186.343 130.93 184.855 134.378 184.171 137.99C183.502 141.45 183.106 144.948 182.986 148.459C182.776 155.308 182.566 161.74 182.388 167.601L182.138 167.336L209.783 170.769L217.545 171.76L219.609 172.035C220.079 172.1 220.327 172.138 220.335 172.148C220.111 172.143 219.887 172.125 219.666 172.094L217.654 171.883L209.934 171.032L182.052 167.856L181.794 167.826V167.589C181.954 161.73 182.069 155.295 182.315 148.433C182.426 144.892 182.819 141.363 183.489 137.874C184.187 134.179 185.709 130.653 187.96 127.512C189.553 125.305 191.645 123.433 194.096 122.019C196.5 120.635 199.293 119.914 202.138 119.944C206.062 120.099 209.828 121.394 212.882 123.64C215.936 125.885 218.117 128.961 219.106 132.417C219.253 132.948 219.339 133.485 219.458 134.014C219.515 134.55 219.573 135.083 219.632 135.612C219.657 136.661 219.683 137.693 219.708 138.707C219.798 142.76 219.882 146.537 219.96 149.991C220.09 156.83 220.197 162.388 220.27 166.264C220.299 168.137 220.32 169.607 220.337 170.65C220.337 171.12 220.337 171.492 220.337 171.778C220.35 171.896 220.352 172.015 220.343 172.134Z" fill="#263238"/>
<path d="M134.776 172.514L123.128 164.684C121.005 163.256 117.693 163.54 115.062 163.332C110.162 163.326 105.324 164.33 100.912 166.267L104.428 168.821L81.7891 168.19C82.5715 169.584 83.7535 170.76 85.2102 171.595C86.6669 172.429 88.3443 172.89 90.0653 172.93C90.4579 174.447 91.3826 175.807 92.6999 176.805C94.0172 177.803 95.6557 178.384 97.3682 178.461C98.4019 180.647 100.319 182.39 102.724 183.33C102.724 183.33 103.454 187.526 109.297 187.314L129.124 189.357L134.776 172.514Z" fill="#FFBE9D"/>
<path d="M104.233 173.694C101.845 173.876 99.4442 173.852 97.0619 173.622C94.6655 173.597 92.277 173.366 89.929 172.93C92.3163 172.748 94.7173 172.772 97.0996 173.002C99.496 173.027 101.884 173.258 104.233 173.694Z" fill="#EB996E"/>
<path d="M109.96 178.646C107.889 178.954 105.787 179.058 103.691 178.957C101.595 179.058 99.4938 178.954 97.4227 178.646C99.4937 178.336 101.595 178.232 103.691 178.335C105.787 178.232 107.889 178.336 109.96 178.646Z" fill="#EB996E"/>
<path d="M116.115 183.33C114.044 183.639 111.942 183.743 109.846 183.641C107.751 183.743 105.649 183.639 103.578 183.33C105.649 183.021 107.751 182.916 109.846 183.019C111.942 182.916 114.044 183.021 116.115 183.33Z" fill="#EB996E"/>
<path d="M185.487 194.257C183.759 191.494 182.602 188.466 182.073 185.325C183.471 188.215 184.612 191.202 185.487 194.257Z" fill="#EB996E"/>
<path d="M189.003 192.546C186.47 190.134 184.12 187.57 181.968 184.869C184.803 187.022 187.186 189.623 189.003 192.546Z" fill="#EB996E"/>
</svg>
