<svg width="707" height="454" viewBox="0 0 707 454" fill="none" xmlns="http://www.w3.org/2000/svg">
<path d="M547.5 265L528 180L509 221.5L533 265H547.5Z" fill="#FFBE9D"/>
<rect x="480" y="281" width="123" height="158" rx="20" fill="#643691"/>
<path d="M561.5 265.5H546.5L549 271H556V281C556 281.8 559.667 281.333 561.5 281V265.5Z" fill="black"/>
<path d="M411.409 168.5C414.409 162.5 440.909 143 440.909 143L450.409 134L465 154.5L422 181C422 181 408.409 174.5 411.409 168.5Z" fill="#FFBE9D"/>
<path d="M222.5 44.621L221 33.621C221 33.621 224.1 32.671 226 33.121C229.004 33.8325 229.971 34.5794 230.5 37.621C231.07 40.8969 230.184 43.6633 227 44.621C225.317 45.1272 222.5 44.621 222.5 44.621Z" fill="#FFBE9D"/>
<path d="M228.5 42.121C229.647 41.2819 229.581 40.0402 229.5 38.621C229.454 37.8172 229.334 37.3534 229 36.621C228.708 35.9805 228.636 35.4224 228 35.121C227.471 34.8702 227.065 34.9669 226.5 35.121C225.821 35.3063 225 36.121 225 36.121L226.5 35.621C226.5 35.621 227.471 35.3702 228 35.621C228.636 35.9224 228.785 36.4505 229 37.121C229.238 37.8649 229.094 38.3456 229 39.121C228.903 39.9202 228.987 40.48 228.5 41.121C228.333 41.3409 228.237 41.4789 228 41.621C227.498 41.9224 227.079 41.5297 226.5 41.621C225.89 41.7173 225 42.121 225 42.121C225 42.121 227.397 42.9279 228.5 42.121Z" fill="#EB996E"/>
<path d="M216 332.5L186 214H246.5C246.5 214 248.5 216 250.5 227C252.5 238 243.5 251.5 243.5 251.5L246.5 323C246.5 323 255.5 328 263 339.5C270.5 351 286 391 286 391L263 405.5L216 332.5Z" fill="#263238"/>
<path d="M123 313.5L185.65 214H244.912C244.912 214 246.461 229.013 236.571 245.455C224.582 265.39 158.433 319.5 158.433 319.5C158.433 319.5 160.617 329.393 154 350C147.367 370.659 132.534 413 132.534 413L104.5 407L123 313.5Z" fill="#263238"/>
<rect x="291" y="238.002" width="4.56994" height="61" transform="rotate(-25.9834 291 238.002)" fill="#C4C4C4"/>
<path d="M281.901 234.27L279.796 231.3L278.938 229.972L290.034 224.128L296.032 236.629L290.641 239.356L286.979 231.933L281.901 234.27Z" fill="black"/>
<path d="M707 453.5C707 453.776 548.72 454 353.518 454C158.247 454 0 453.776 0 453.5C0 453.224 158.245 453 353.518 453C548.718 453 707 453.224 707 453.5Z" fill="#263238"/>
<path d="M186.355 106.001L192.215 79.2064L132.5 90L81.5 65L72.703 73.8035L122 106.001C126.908 108.526 131.068 112.054 136.628 111.445L186.355 106.001Z" fill="#FFBE9D"/>
<path d="M201.707 74.4752L186.879 74.4365L151.092 83.9498L154.061 114.5L167.561 112.5L181.062 108L201.707 74.4752Z" fill="#643691"/>
<path d="M225.981 40.7996C229.39 33.304 229.568 20.2697 224.357 13.4169C219.146 6.5641 209.39 2.03816 200.428 0.287284C198.951 -0.112601 197.375 -0.0946401 195.909 0.338781C195.19 0.579899 194.598 1.05996 194.253 1.68219C193.907 2.30442 193.834 3.02253 194.048 3.69175C192.309 2.58029 190.378 1.73859 188.336 1.20086C187.31 0.94082 186.231 0.913528 185.191 1.12137C184.152 1.3292 183.184 1.76582 182.373 2.3929C181.989 2.72081 181.68 3.11472 181.465 3.55183C181.249 3.98894 181.131 4.46058 181.117 4.93947C181.103 5.41836 181.194 5.89499 181.384 6.3418C181.574 6.7886 181.86 7.19673 182.224 7.54254C180.966 7.12472 179.6 7.0507 178.296 7.3296C176.992 7.6085 175.806 8.22813 174.884 9.11219C173.962 9.99625 173.345 11.1061 173.108 12.3051C172.871 13.5041 173.026 14.7398 173.552 15.8601C174.775 18.1595 176.474 20.2228 178.557 21.9367C179.389 22.6109 180.003 23.4774 180.336 24.4441C180.668 25.4107 180.706 26.4412 180.445 27.4258" fill="#263238"/>
<path d="M223.83 27.0558L226.203 72.9447C226.298 74.7939 225.979 76.6414 225.265 78.3752C224.551 80.1089 223.457 81.6927 222.05 83.0304C220.642 84.3681 218.95 85.4318 217.077 86.157C215.203 86.8822 213.187 87.2538 211.151 87.2492C207.289 87.2387 203.58 85.8782 200.791 83.4497C198.003 81.0211 196.349 77.7104 196.172 74.2035C195.997 70.7494 195.844 67.8694 195.8 67.5147C195.8 67.5147 182.894 66.9654 181.369 55.4417C180.632 49.8724 180.141 38.2915 179.829 27.8091C179.671 22.3794 181.768 17.0948 185.701 13.0066C189.635 8.91834 195.117 6.32621 201.058 5.74583L202.281 5.62566C215.569 5.03632 223.541 14.9637 223.83 27.0558Z" fill="#FFBE9D"/>
<path d="M195.76 67.3544C201.632 66.88 207.215 64.827 211.799 61.4572C211.799 61.4572 209.269 68.6762 196.484 68.8802L195.76 67.3544Z" fill="#EB996E"/>
<path d="M184.003 33.6747C184.048 34.1049 184.278 34.5018 184.641 34.7805C185.004 35.0592 185.473 35.1976 185.947 35.1662C186.18 35.1604 186.409 35.1123 186.621 35.0248C186.833 34.9372 187.023 34.812 187.181 34.6564C187.339 34.5009 187.461 34.3182 187.54 34.1191C187.618 33.9201 187.653 33.7087 187.64 33.4974C187.594 33.0675 187.365 32.6711 187.002 32.3922C186.64 32.1134 186.172 31.9741 185.698 32.004C185.465 32.0098 185.235 32.0579 185.023 32.1456C184.811 32.2332 184.621 32.3586 184.463 32.5143C184.305 32.67 184.182 32.8529 184.103 33.0522C184.024 33.2515 183.99 33.4632 184.003 33.6747Z" fill="#263238"/>
<path d="M184.044 31.0246C184.226 31.2807 185.747 30.6452 187.666 31.0434C189.585 31.4415 190.83 32.6073 191.078 32.4365C191.198 32.3618 191.044 31.9307 190.505 31.3989C189.772 30.7013 188.835 30.2196 187.823 30.0197C186.824 29.8107 185.797 29.8985 184.89 30.2702C184.222 30.5627 183.953 30.9067 184.044 31.0246Z" fill="#263238"/>
<path d="M202.002 33.673C202.049 34.103 202.278 34.4995 202.641 34.7781C203.005 35.0567 203.473 35.1954 203.947 35.1645C204.18 35.1587 204.409 35.1106 204.621 35.023C204.833 34.9354 205.023 34.8102 205.181 34.6547C205.339 34.4991 205.461 34.3164 205.54 34.1174C205.618 33.9183 205.653 33.7069 205.64 33.4956C205.593 33.0658 205.364 32.6695 205.001 32.391C204.638 32.1125 204.169 31.9737 203.695 32.0041C203.463 32.0102 203.234 32.0585 203.022 32.1461C202.811 32.2338 202.62 32.359 202.462 32.5145C202.305 32.67 202.183 32.8525 202.104 33.0515C202.025 33.2504 201.99 33.4618 202.002 33.673Z" fill="#263238"/>
<path d="M202.289 30.5527C202.472 30.8058 203.988 30.1928 205.905 30.5991C207.822 31.0053 209.07 32.1634 209.316 31.9951C209.435 31.9225 209.281 31.4999 208.741 30.9705C208.007 30.2791 207.07 29.7982 206.059 29.5939C205.061 29.3812 204.036 29.4596 203.132 29.8176C202.468 30.1005 202.198 30.436 202.289 30.5527Z" fill="#263238"/>
<path d="M196.917 45.5028C195.854 45.3116 194.769 45.2417 193.688 45.2949C193.184 45.2949 192.702 45.253 192.582 44.9535C192.485 44.4897 192.545 44.0099 192.756 43.5784C193.095 42.434 193.449 41.2362 193.82 39.9851C194.84 36.9293 195.588 33.8041 196.058 30.6395C194.77 33.6117 193.747 36.6732 192.998 39.7944C192.649 41.0532 192.316 42.2554 191.999 43.401C191.751 43.978 191.733 44.6161 191.951 45.2034C192.043 45.3541 192.172 45.4839 192.328 45.583C192.483 45.6821 192.661 45.7479 192.849 45.7756C193.133 45.8168 193.422 45.8251 193.709 45.8004C194.788 45.8247 195.865 45.7247 196.917 45.5028Z" fill="#263238"/>
<path d="M204.107 50.7543C203.8 50.67 203.417 52.5693 201.368 53.5267C199.32 54.4841 197.153 53.7862 197.083 54.0483C197.03 54.1591 197.504 54.5262 198.433 54.7548C199.646 55.0397 200.906 54.9235 201.989 54.4269C203.028 53.9499 203.804 53.1064 204.152 52.0746C204.39 51.2957 204.255 50.7701 204.107 50.7543Z" fill="#263238"/>
<path d="M203.062 24.7089C203.213 25.2132 205.178 25.1896 207.444 25.6817C209.719 26.1349 211.509 26.9399 211.849 26.5386C212.002 26.3444 211.72 25.8557 211.014 25.3092C210.068 24.6299 208.973 24.1512 207.813 23.9095C206.653 23.6678 205.458 23.6694 204.318 23.9142C203.465 24.1375 203.01 24.4723 203.062 24.7089Z" fill="#263238"/>
<path d="M183.114 26.3179C183.511 26.6805 184.788 26.1072 186.404 25.8976C188.007 25.6368 189.42 25.8183 189.676 25.3614C189.785 25.1419 189.516 24.7635 188.866 24.4533C188.001 24.0916 187.037 23.9717 186.096 24.1089C185.155 24.246 184.278 24.6341 183.578 25.2238C183.064 25.7046 182.934 26.14 183.114 26.3179Z" fill="#263238"/>
<path d="M173.019 13.2624C172.866 23.596 187.128 26.9128 192.739 20.7523C195.339 17.9028 197.521 14.4144 201.261 12.9535C202.543 12.5044 203.91 12.2915 205.284 12.3272C206.657 12.3628 208.009 12.6464 209.26 13.1614L209.336 13.19C211.165 14.0437 212.751 15.2713 213.97 16.7764C215.189 18.2815 216.008 20.023 216.362 21.8642C217.564 26.8842 217.046 31.4216 218.879 35.978C219.066 36.6582 219.497 37.2622 220.105 37.6946C221.216 38.3125 222.687 37.6011 223.48 36.6608C224.625 35.0619 225.231 33.1939 225.223 31.2862C225.627 26.9722 225.083 22.6284 223.623 18.5074C222.141 14.3747 219.359 10.7276 215.621 8.01745C210.797 4.76444 204.771 3.34268 198.815 4.05223C192.888 4.80019 187.372 7.22821 183.051 10.9909C180.962 12.6412 179.359 14.7388 178.386 17.0942" fill="#263238"/>
<path d="M181.757 6.97804C181.351 6.93401 180.94 6.97846 180.557 7.10772C179.487 7.41484 178.532 7.98835 177.802 8.76323C176.696 9.91428 176.052 11.3729 175.977 12.9001C175.962 14.7764 176.709 16.5918 178.075 17.9982C179.399 19.404 181.127 20.4473 183.066 21.0117C184.625 21.4606 186.256 21.6726 187.891 21.6392C188.983 21.6216 190.071 21.5156 191.143 21.3226C191.543 21.2799 191.933 21.1781 192.297 21.0213C192.278 20.9106 190.604 21.2501 187.891 21.212C186.315 21.1836 184.752 20.9372 183.257 20.4815C181.443 19.9221 179.827 18.9301 178.579 17.6092C177.316 16.3133 176.607 14.6483 176.581 12.9173C176.627 11.5049 177.179 10.1447 178.153 9.04361C178.806 8.29078 179.658 7.70031 180.63 7.32706C181.012 7.22942 181.389 7.1129 181.757 6.97804Z" fill="#455A64"/>
<path d="M187.283 2.94786C187.283 2.91734 186.955 2.8811 186.464 3.13858C186.132 3.3387 185.851 3.60192 185.642 3.91011C185.432 4.21829 185.298 4.56412 185.25 4.92379C185.169 5.98465 185.494 7.03829 186.169 7.90676C186.895 8.96896 187.784 9.93217 188.808 10.7677C190.663 12.2947 192.906 13.3787 195.337 13.9223C196.321 14.2052 197.36 14.2924 198.385 14.1779C198.397 14.0672 197.227 14.0119 195.462 13.5046C193.164 12.8626 191.048 11.7738 189.259 10.3137C188.28 9.5141 187.418 8.60394 186.693 7.60541C186.064 6.84552 185.724 5.92047 185.724 4.96957C185.773 4.33778 186.094 3.74905 186.618 3.33123C186.999 3.04895 187.295 2.99935 187.283 2.94786Z" fill="#455A64"/>
<path d="M196 75C196 75 177 82.5 175.5 105C174 127.5 180.634 149.382 180 154C179.367 158.618 180 176.958 180 181C180 185.042 182 216.5 182 216.5C182 216.5 236.187 226.328 248 213L243.741 186.902L246.94 125.505C246.94 125.505 251.222 82.8911 226.5 73C226.498 73.0019 210.713 81.8357 196 75Z" fill="#643691"/>
<path d="M228.253 81.2882C225.956 81.3017 223.698 82.0147 221.831 83.3154C217.522 86.209 210.077 93.3934 212.834 108.195L217.286 132.108L255.577 127.967C255.577 127.967 248.23 81.5113 228.253 81.2882Z" fill="#643691"/>
<path d="M257.34 126.396C257.277 126.272 257.222 126.144 257.174 126.013C257.066 125.736 256.923 125.375 256.744 124.922C256.365 123.934 255.827 122.539 255.141 120.764C253.762 117.139 251.786 111.96 249.356 105.574C248.149 102.375 246.828 98.8736 245.411 95.1189C245.058 94.1794 244.701 93.2266 244.338 92.2606C244.118 91.7983 243.897 91.3317 243.674 90.8609C243.399 90.4169 243.143 89.9539 242.848 89.5167C240.856 86.6803 237.901 84.5623 234.412 83.4717C230.924 82.381 227.086 82.3749 223.457 83.4542C220.878 84.309 218.578 85.8253 216.836 87.8199C215.038 89.8809 213.711 92.2483 212.944 94.7648C211.854 98.3824 211.559 102.126 212.079 105.765C212.562 109.256 213.318 112.695 214.338 116.056C216.352 122.606 218.231 128.76 219.955 134.365L219.633 134.194L246.904 128.515L254.571 126.946L256.613 126.539C257.079 126.449 257.326 126.405 257.337 126.411C257.123 126.479 256.906 126.535 256.686 126.577L254.714 127.026L247.132 128.715L219.72 134.715L219.466 134.769L219.389 134.545C217.648 128.949 215.679 122.821 213.694 116.248C212.656 112.861 211.888 109.394 211.396 105.875C210.863 102.153 211.164 98.3244 212.28 94.6246C213.075 92.0219 214.45 89.574 216.313 87.4441C218.141 85.3579 220.551 83.7735 223.253 82.8829C227.017 81.7624 230.999 81.7721 234.615 82.9105C238.231 84.0489 241.289 86.256 243.341 89.2074C243.651 89.6618 243.906 90.143 244.19 90.6044C244.417 91.0937 244.644 91.5791 244.871 92.0608C245.233 93.0454 245.591 94.0138 245.942 94.9659C247.337 98.7725 248.636 102.319 249.825 105.563C252.157 111.994 254.053 117.22 255.375 120.864C256.007 122.627 256.502 124.012 256.855 124.994C257.007 125.438 257.127 125.79 257.219 126.06C257.27 126.168 257.311 126.28 257.34 126.396Z" fill="#263238"/>
<path d="M264 234.5C263.624 231.2 264.081 229.562 266 227C266 227 275 223 276.5 223.5C278 224 277.774 222.256 280.5 225.5C283.226 228.744 286.5 238.5 285.5 241C284.5 243.5 277.689 247.516 269.5 246C268.125 244.13 267.874 243.028 268 241C267.785 241.801 267.434 242.003 266 241.5L264 234.5Z" fill="#FFBE9D"/>
<path d="M73.5 73.4331L81 65.4331L74 54.9331L64 63.9331L70 72.9331L73.5 73.4331Z" fill="#FFBE9D"/>
<rect x="54" y="44.4331" width="15.7529" height="30.0886" rx="5" transform="rotate(-28.1547 54 44.4331)" fill="black"/>
<path d="M83.5 59.9331C83.5 61.4331 82 63.9331 82 64.9331C82 65.9331 77 66.4331 77 66.4331C77 66.4331 77.3639 59.5175 78.0919 57.1766C77.0843 58.2917 74.9936 60.2706 74 60.9331C72.5 61.9331 70 62.4331 69.5 60.9331C69 59.4331 75 53.9331 76.5 52.4331C78 50.9331 81 50.9331 82 52.4331C83 53.9331 83.5 58.4331 83.5 59.9331Z" fill="#FFBE9D"/>
<path d="M132.5 90.5C132.5 91.3 132.5 94.1667 132.5 95.5" stroke="#EB996E" stroke-width="0.7"/>
<path d="M278 223.5L252.5 128L226 133.5L245.5 183L266 227L278 223.5Z" fill="#FFBE9D"/>
<ellipse cx="195.087" cy="109.623" rx="6.225" ry="17.035" transform="rotate(6.40784 195.087 109.623)" fill="#FAFAFA"/>
<path d="M177.5 96C175.316 99.9545 175.007 103.022 175 109L175.5 107L176 104L177 99.5L177.5 96Z" fill="black"/>
<path d="M268 241L267 237.5L266.5 236L255 241L261 253.5L266.5 251L263 243.5L268 241Z" fill="black"/>
<rect x="262" y="253.002" width="4.56994" height="61" transform="rotate(-25.9834 262 253.002)" fill="#C4C4C4"/>
<rect x="275" y="312.162" width="98.2346" height="149.407" rx="20" transform="rotate(-26.0641 275 312.162)" fill="#643691"/>
<ellipse cx="360" cy="445.5" rx="8" ry="7.5" fill="black"/>
<circle cx="360.5" cy="445.5" r="1.5" fill="white"/>
<path d="M311 298L377 429" stroke="black"/>
<circle cx="405" cy="396" r="5" fill="white"/>
<path d="M273 245.5C274.01 243.743 274.549 242.757 273 241" stroke="#EB996E" stroke-width="0.7"/>
<path d="M282 242.5C283.01 240.743 283.549 239.757 282 238" stroke="#EB996E" stroke-width="0.7"/>
<path d="M279 244.5C280.01 242.743 280.549 241.757 279 240" stroke="#EB996E" stroke-width="0.7"/>
<path d="M276 245.5C277.01 243.743 277.549 242.757 276 241" stroke="#EB996E" stroke-width="0.7"/>
<path d="M102.5 421.5L106.5 407.5L129.5 412.5L121 445.5L53.5 431L55.5 424L102.5 421.5Z" fill="#78471F"/>
<path d="M272 420L265 404.5L283 393L300 421L275.5 453H253V448.5L265 443.5L272 420Z" fill="#78471F"/>
<path opacity="0.6" d="M253 449V453H275.5L300 421L297 416L273 449H253Z" fill="white"/>
<path opacity="0.6" d="M55.5 424.5L53 431L121.5 446L123 438.5L55.5 424.5Z" fill="white"/>
<path d="M102.011 409.759L104 414C104 414 101.51 412.636 100.023 411.577C98.3804 410.407 95.6108 410.299 96.0457 408.245C96.271 407.181 96.8168 406.571 97.7502 406.125C99.6951 405.196 102.011 409.759 102.011 409.759Z" stroke="#263238"/>
<path d="M109.895 412.246L106 414.847C106 414.847 108.836 414.967 110.657 414.83C112.668 414.678 115.094 416.019 115.784 414.036C116.142 413.009 115.99 412.204 115.422 411.339C114.238 409.538 109.895 412.246 109.895 412.246Z" stroke="#263238"/>
<path d="M263.793 408.976L268.29 410.283C268.29 410.283 265.622 411.252 263.844 411.669C261.881 412.13 259.972 414.139 258.716 412.456C258.066 411.584 257.968 410.771 258.249 409.776C258.836 407.702 263.793 408.976 263.793 408.976Z" stroke="#263238"/>
<path d="M273.062 405.157L270 408.702C270 408.702 272.766 408.062 274.484 407.445C276.382 406.763 279.078 407.408 279.215 405.313C279.285 404.228 278.925 403.493 278.147 402.811C276.526 401.39 273.062 405.157 273.062 405.157Z" stroke="#263238"/>
<path d="M104 417.5L108 420" stroke="#263238"/>
<path d="M99.1591 422L100.871 426.698" stroke="#263238"/>
<path d="M91.1591 422L92.8713 426.698" stroke="#263238"/>
<path d="M271 416L276.5 414" stroke="#263238"/>
<path d="M270.5 425.5L276 426.5" stroke="#263238"/>
<path d="M269 433L274.5 434" stroke="#263238"/>
<path d="M158 319.5L203 280.5C219.17 268.74 235.268 267.235 244.5 249.5C247.351 244.023 250.077 237.66 250.5 231.5C250.823 226.788 246.5 215 246.5 215" stroke="#455A64"/>
<path d="M520.624 420.115L528.156 404.573L508.501 393.183L490.157 421.286L517 453.136L541.487 452.999L541.462 448.499L528.374 443.572L520.624 420.115Z" fill="#78471F"/>
<path opacity="0.6" d="M541.465 448.999L541.487 452.999L517 453.136L490.157 421.286L493.394 416.268L519.698 449.121L541.465 448.999Z" fill="white"/>
<path d="M529.494 409.041L524.607 410.375C524.607 410.375 527.516 411.328 529.453 411.735C531.592 412.184 533.682 414.181 535.039 412.49C535.742 411.615 535.844 410.801 535.532 409.808C534.882 407.737 529.494 409.041 529.494 409.041Z" stroke="#263238"/>
<path d="M519.386 405.279L522.738 408.805C522.738 408.805 519.724 408.183 517.85 407.575C515.781 406.905 512.851 407.567 512.69 405.473C512.607 404.388 512.995 403.65 513.838 402.964C515.594 401.534 519.386 405.279 519.386 405.279Z" stroke="#263238"/>
<path d="M521.69 416.109L515.693 414.143" stroke="#263238"/>
<path d="M522.287 425.606L516.307 426.64" stroke="#263238"/>
<path d="M523.962 433.097L517.982 434.13" stroke="#263238"/>
<path d="M472.651 274.06L471.365 263.469C471.365 263.469 462.066 242.061 460.736 232.892C459.407 223.723 468 224.5 468 224.5L518.5 227C518.5 227 518.749 276.557 511.663 296.916C511.663 296.916 508.065 335.876 507.536 339.139C506.414 346.07 502.502 417 502.502 417L472.896 415.819C472.896 415.819 470.326 350.608 472.374 332.096C473.392 322.931 473.874 313.162 474.094 305.079C474.379 294.714 473.896 284.34 472.651 274.06Z" fill="#263238"/>
<path d="M479.879 99.3139C477.784 99.8393 475.583 99.9119 473.451 99.5262C471.32 99.1405 469.317 98.307 467.603 97.0923C465.889 95.8777 464.511 94.3155 463.579 92.5305C462.647 90.7455 462.187 88.7871 462.236 86.8118C462.328 83.1403 464.153 79.3963 462.899 75.9041C462.036 73.5067 459.825 71.6375 459.085 69.2077C457.979 65.5839 460.392 61.9124 462.695 58.7844C464.066 56.7103 465.767 54.8327 467.745 53.2133C468.741 52.4097 469.92 51.8152 471.197 51.4721C472.474 51.129 473.819 51.0456 475.136 51.2278" fill="#263238"/>
<path d="M517.13 51.5501C516.903 54.3214 518.917 56.7989 520.948 58.8779C522.979 60.9568 525.234 63.1254 525.674 65.8776C526.451 70.7525 521.202 75.2804 522.284 80.1058C522.863 82.692 525.194 84.771 525.609 87.3858C525.687 88.6634 525.466 89.9415 524.959 91.1354C524.453 92.3293 523.674 93.4118 522.672 94.3111C520.826 96.2356 518.575 97.8396 516.941 99.9185C515.392 102.212 514.085 104.633 513.039 107.151C511.977 109.684 510.05 111.84 507.54 113.304C503.63 115.234 498.152 114.326 495.162 117.309C492.265 120.199 488.714 120.652 485.143 122.84" fill="#263238"/>
<path d="M470.262 55.7881C470.183 53.2743 472.74 51.3327 475.314 50.4096C477.989 49.7755 480.581 48.8802 483.045 47.7394C484.92 46.3077 486.635 44.7105 488.164 42.9712C490.286 41.015 492.943 39.6076 495.861 38.8934C498.779 38.1792 501.854 38.184 504.77 38.9073C507.686 39.6305 510.337 41.0462 512.452 43.0089C514.567 44.9717 516.069 47.4108 516.804 50.0758C517.405 51.8446 517.463 53.729 516.971 55.5254C516.479 57.3218 515.457 58.9618 514.014 60.2682C510.41 63.03 505.069 62.4158 500.451 61.5576C495.834 60.6993 490.61 59.8505 486.754 62.3205C484.594 64.0116 482.862 66.1072 481.677 68.4638C480.477 70.8311 478.388 72.7324 475.786 73.827C473.099 74.6681 469.45 73.2148 469.346 70.6323" fill="#263238"/>
<path d="M481.167 56.3068C480.015 56.4198 478.951 56.9218 478.186 57.7136C477.421 58.5054 477.011 59.5294 477.037 60.5829L479.797 117.401C479.913 124.112 490.707 127.891 498.605 127.715C506.577 127.545 506.844 123.988 506.942 117.606C507.108 106.941 507.095 102.938 507.1 102.999C507.1 102.999 517.18 101.456 519.24 89.4895C520.08 81.6177 520.113 73.6921 519.341 65.8146C518.825 58.6394 513.576 49.845 505.704 50.6175L481.167 56.3068Z" fill="#FFBE9D"/>
<path d="M516.849 72.6463C516.857 73.0471 516.691 73.4347 516.387 73.7252C516.083 74.0157 515.666 74.1859 515.225 74.1988C515.01 74.2147 514.794 74.1913 514.589 74.1301C514.385 74.0688 514.196 73.971 514.033 73.8423C513.871 73.7137 513.738 73.5568 513.643 73.3808C513.549 73.2049 513.494 73.0135 513.481 72.818C513.476 72.4182 513.643 72.0323 513.946 71.7423C514.248 71.4524 514.664 71.2813 515.103 71.2655C515.318 71.2491 515.535 71.2721 515.74 71.3331C515.945 71.3941 516.134 71.4919 516.297 71.6206C516.46 71.7493 516.592 71.9065 516.687 72.0826C516.782 72.2588 516.837 72.4505 516.849 72.6463Z" fill="#263238"/>
<path d="M517.035 70.8879C516.826 71.0882 515.546 70.2299 513.731 70.2395C511.916 70.249 510.584 71.0749 510.389 70.8746C510.293 70.7849 510.505 70.4245 511.084 70.0392C511.867 69.5399 512.802 69.2734 513.758 69.2763C514.702 69.2706 515.623 69.5378 516.389 70.0392C516.939 70.4378 517.13 70.7983 517.035 70.8879Z" fill="#263238"/>
<path d="M498.771 73.07C498.779 73.4708 498.613 73.8584 498.309 74.1489C498.005 74.4394 497.588 74.6095 497.147 74.6225C496.932 74.6383 496.716 74.6149 496.512 74.5537C496.307 74.4925 496.118 74.3947 495.955 74.266C495.793 74.1373 495.661 73.9804 495.566 73.8045C495.471 73.6286 495.416 73.4372 495.404 73.2416C495.396 72.8408 495.562 72.4532 495.866 72.1627C496.169 71.8722 496.587 71.7021 497.028 71.6891C497.242 71.673 497.459 71.6962 497.663 71.7573C497.868 71.8184 498.057 71.9163 498.22 72.045C498.382 72.1737 498.515 72.3307 498.61 72.5068C498.704 72.6828 498.759 72.8743 498.771 73.07Z" fill="#263238"/>
<path d="M499.182 71.2332C498.972 71.4335 497.693 70.5771 495.878 70.5847C494.063 70.5924 492.731 71.4201 492.536 71.2198C492.44 71.1302 492.649 70.7697 493.23 70.3845C494.013 69.8855 494.947 69.619 495.903 69.6216C496.847 69.6157 497.768 69.8829 498.534 70.3845C499.092 70.7812 499.283 71.1436 499.182 71.2332Z" fill="#263238"/>
<path d="M505.799 83.453C506.755 83.1795 507.745 83.0155 508.747 82.9648C509.21 82.919 509.649 82.8351 509.726 82.5471C509.764 82.1114 509.655 81.6756 509.414 81.2978L508.035 78.0898C506.756 75.3724 505.719 72.5661 504.935 69.6978C506.451 72.3147 507.735 75.0381 508.772 77.8418L510.093 81.0689C510.387 81.5768 510.473 82.1625 510.337 82.7226C510.27 82.8718 510.167 83.0052 510.035 83.1127C509.903 83.2201 509.746 83.2987 509.575 83.3424C509.319 83.4059 509.054 83.4398 508.788 83.4435C507.796 83.5624 506.792 83.5656 505.799 83.453Z" fill="#263238"/>
<path d="M507.102 102.995C500.91 103.092 494.809 101.625 489.479 98.757C489.479 98.757 493.774 106.958 506.94 105.814L507.102 102.995Z" fill="#EB996E"/>
<path d="M505.033 87.4412C504.687 87.0464 504.235 86.7385 503.721 86.5463C503.207 86.3541 502.648 86.284 502.096 86.3426C501.696 86.3762 501.307 86.4831 500.953 86.6568C500.599 86.8305 500.287 87.0675 500.036 87.3535C499.793 87.6288 499.65 87.9655 499.625 88.3177C499.6 88.6699 499.695 89.0205 499.898 89.3218C500.19 89.6176 500.573 89.8274 500.997 89.9242C501.421 90.021 501.867 90.0006 502.279 89.8653C503.132 89.5857 503.916 89.156 504.586 88.6008C504.79 88.4687 504.965 88.3031 505.102 88.1125C505.169 88.0216 505.205 87.9148 505.205 87.8055C505.205 87.6962 505.169 87.5893 505.102 87.4984" fill="#EB996E"/>
<path d="M500.46 84.6145C500.755 84.5974 500.762 86.3902 502.453 87.6662C504.144 88.9421 506.239 88.7342 506.256 88.9841C506.286 89.0966 505.788 89.3331 504.903 89.3655C503.749 89.3823 502.625 89.0292 501.729 88.368C500.869 87.7321 500.314 86.817 500.183 85.8161C500.105 85.0494 500.323 84.6031 500.46 84.6145Z" fill="#263238"/>
<path d="M499.981 68.3417C499.805 68.7899 497.991 68.582 495.861 68.8185C493.728 69.0093 492.009 69.5814 491.726 69.1866C491.6 68.9959 491.898 68.5706 492.593 68.1357C493.519 67.6007 494.567 67.2645 495.658 67.1528C496.748 67.0411 497.852 67.1568 498.886 67.4911C499.671 67.7772 500.067 68.1281 499.981 68.3417Z" fill="#263238"/>
<path d="M516.349 66.1122C516.03 66.4936 514.778 66.1007 513.274 66.0854C511.77 66.0225 510.496 66.3429 510.202 65.952C510.075 65.7612 510.274 65.3798 510.832 65.0307C511.579 64.6035 512.448 64.3876 513.33 64.4107C514.212 64.4338 515.067 64.6948 515.785 65.1604C516.314 65.5438 516.49 65.9291 516.349 66.1122Z" fill="#263238"/>
<path d="M471.983 95.6596C473.8 95.993 475.679 95.9282 477.464 95.4706C479.248 95.013 480.888 94.1758 482.246 93.0281C483.604 91.8804 484.642 90.4553 485.274 88.8705C485.906 87.2858 486.115 85.587 485.881 83.9146C485.474 80.9774 483.731 77.9868 484.849 75.206C486.332 71.5307 491.999 70.3997 493.503 66.7301C494.376 64.5978 493.593 62.1031 494.584 60.0146C495.159 59.081 495.936 58.2621 496.867 57.6068C497.798 56.9515 498.864 56.4731 500.002 56.2001C502.283 55.6633 504.458 54.8055 506.447 53.6577C507.424 53.0577 508.14 52.1667 508.472 51.1383C508.804 50.1099 508.731 49.0084 508.266 48.0236C498.442 49.0956 488.794 51.2277 479.525 54.3748C477.301 54.9258 475.321 56.0931 473.86 57.7144C472.74 59.6866 472.332 61.9297 472.694 64.1248C473.245 74.8665 473.797 85.607 474.349 96.3462" fill="#263238"/>
<path d="M464.888 105.6C464.905 104.576 465.138 103.564 465.571 102.619C466.114 101.529 466.875 100.541 467.816 99.7049C469.076 98.6028 470.511 97.6795 472.073 96.966C473.785 96.1192 475.763 95.3487 477.788 94.2959C480.018 93.2213 481.899 91.633 483.242 89.6898C483.95 88.6015 484.33 87.3628 484.344 86.0984C484.289 84.8187 484.09 83.5475 483.75 82.3048C483.389 81.0813 483.297 79.8054 483.477 78.5494C483.621 77.9321 483.913 77.3513 484.333 76.849C484.753 76.3467 485.291 75.9354 485.907 75.6447C487.149 74.9733 488.567 74.5613 489.909 73.9873C491.315 73.4732 492.506 72.5679 493.312 71.401C493.969 70.2308 494.308 68.9345 494.3 67.6208C494.351 66.3639 494.262 65.1566 494.277 63.997C494.248 62.878 494.426 61.7626 494.804 60.6974C495.182 59.716 495.878 58.8613 496.799 58.2446C498.576 57.2129 500.558 56.5067 502.633 56.1657C504.393 55.8455 506.074 55.2387 507.597 54.3748C508.738 53.6637 509.574 52.616 509.963 51.409C510.217 50.6521 510.201 49.8416 509.917 49.0935C509.816 48.8373 509.663 48.6009 509.464 48.3974C509.43 48.4146 509.613 48.6434 509.787 49.1336C510.003 49.8594 509.975 50.6271 509.707 51.3384C509.295 52.4671 508.475 53.4358 507.381 54.0868C505.879 54.8931 504.232 55.4517 502.516 55.7366C500.364 56.0632 498.305 56.7764 496.459 57.8346C495.441 58.5019 494.668 59.4323 494.239 60.5047C493.826 61.6262 493.626 62.8031 493.646 63.9855C493.621 65.1776 493.7 66.3868 493.646 67.6093C493.649 68.8246 493.336 70.0234 492.731 71.1073C491.991 72.1637 490.902 72.9802 489.62 73.4399C488.325 73.9949 486.893 74.3935 485.556 75.124C484.873 75.4799 484.267 75.9466 483.769 76.501C483.286 77.0696 482.958 77.7335 482.81 78.4388C482.611 79.7779 482.708 81.1395 483.095 82.4441C483.429 83.6459 483.629 84.8753 483.691 86.1137C483.684 87.2777 483.341 88.4197 482.695 89.4247C481.419 91.2893 479.633 92.8207 477.511 93.8686C475.541 94.9214 473.569 95.7168 471.846 96.6017C470.26 97.3549 468.81 98.3263 467.55 99.4817C466.6 100.364 465.847 101.405 465.332 102.547C465.007 103.267 464.832 104.036 464.816 104.814C464.809 105.016 464.82 105.217 464.85 105.417C464.86 105.533 464.875 105.602 464.888 105.6Z" fill="#263238"/>
<path d="M503.239 113.807C503.446 113.891 503.664 113.95 503.888 113.981C504.153 114.044 504.424 114.087 504.698 114.107C505.069 114.156 505.444 114.179 505.82 114.173C508.239 114.176 510.6 113.502 512.584 112.243C513.973 111.392 515.138 110.272 515.997 108.965C516.908 107.437 517.503 105.771 517.753 104.048C517.991 102.211 518.568 100.424 519.458 98.7608C520.762 97.163 522.331 95.7585 524.107 94.5972C525.801 93.2618 526.928 91.4306 527.295 89.42C527.661 87.4093 527.244 85.3454 526.115 83.5846C525.046 82.2061 524.126 80.7371 523.367 79.1979C522.856 77.8206 522.666 76.3618 522.809 74.9142C523.067 72.7939 523.626 70.7129 524.472 68.7232C524.801 67.9943 525.087 67.2501 525.328 66.4936C525.195 66.6595 525.086 66.8411 525.005 67.0334C524.816 67.3938 524.546 67.9336 524.225 68.6393C523.272 70.6266 522.636 72.7273 522.337 74.878C522.155 76.3908 522.327 77.9215 522.842 79.3696C523.584 80.9485 524.497 82.4557 525.57 83.8688C526.608 85.5181 526.985 87.4442 526.635 89.3179C526.285 91.1916 525.23 92.8965 523.65 94.1414C521.819 95.3406 520.21 96.7976 518.884 98.4575C517.96 100.183 517.37 102.04 517.138 103.947C516.918 105.612 516.367 107.228 515.512 108.715C514.711 109.973 513.619 111.058 512.311 111.894C510.415 113.141 508.158 113.853 505.82 113.943C504.158 113.985 503.252 113.737 503.239 113.807Z" fill="#263238"/>
<path d="M465.028 56.7952C464.908 56.9362 464.835 57.1057 464.818 57.2834C464.785 57.5422 464.813 57.8045 464.901 58.0526C464.988 58.3006 465.133 58.5288 465.326 58.7215C465.615 59.0396 465.974 59.3001 466.379 59.4865C466.784 59.6729 467.227 59.7813 467.68 59.8048C468.854 59.7415 469.996 59.4307 471.016 58.897C472.198 58.3036 473.508 57.9521 474.855 57.8671C476.414 57.8299 477.973 57.9579 479.5 58.2485C481.226 58.5882 482.98 58.7943 484.744 58.8645C486.729 58.9365 488.666 58.2944 490.134 57.0774C491.455 55.8052 492.506 54.3218 493.235 52.7022C493.91 51.2562 494.754 49.8801 495.752 48.5977C496.611 47.5513 497.787 46.7554 499.136 46.3079C500.485 45.8603 501.948 45.7805 503.346 46.0782C505.25 46.5349 506.889 47.6371 507.926 49.1585C508.287 49.731 508.609 50.3227 508.891 50.9303C508.891 50.7546 508.857 50.5803 508.791 50.4153C508.64 49.9344 508.429 49.471 508.161 49.0345C507.664 48.2174 506.994 47.4979 506.19 46.9175C505.385 46.3371 504.463 45.9073 503.474 45.6529C502.085 45.3191 500.621 45.3455 499.247 45.7292C497.661 46.1658 496.267 47.0453 495.261 48.243C494.221 49.5498 493.342 50.9569 492.641 52.439C491.939 53.9854 490.935 55.4032 489.676 56.6235C488.334 57.734 486.566 58.321 484.753 58.258C483.024 58.1941 481.304 58.0028 479.609 57.6859C478.031 57.3996 476.422 57.2876 474.815 57.3521C473.402 57.4605 472.032 57.8513 470.804 58.4964C469.857 59.0207 468.793 59.3465 467.69 59.4501C467.282 59.4397 466.881 59.3552 466.509 59.2016C466.138 59.048 465.804 58.8283 465.527 58.5556C465.344 58.39 465.199 58.1926 465.1 57.9751C465.002 57.7575 464.952 57.5243 464.955 57.2891C464.961 56.9706 465.074 56.8047 465.028 56.7952Z" fill="#455A64"/>
<path d="M472.383 53.3544C474.56 52.908 476.499 51.7897 477.871 50.1897C479.243 48.5898 479.962 46.6072 479.907 44.5792C479.852 42.5513 479.025 40.6034 477.568 39.0671C476.111 37.5307 474.114 36.5009 471.915 36.1528C470.879 35.9222 469.794 35.9531 468.776 36.2422C467.757 36.5312 466.845 37.0674 466.138 37.793C464.934 39.2864 465.013 41.5141 463.476 42.731C461.831 44.0317 459.307 43.471 457.182 43.8887C455.553 44.3099 454.141 45.2445 453.201 46.5253C452.26 47.806 451.852 49.3493 452.048 50.8788C452.316 52.4008 453.019 53.832 454.086 55.0291C455.154 56.2262 456.549 57.147 458.132 57.6992C461.33 58.7677 464.83 58.8302 468.072 57.8766C471.286 56.9227 474.342 55.5752 477.156 53.8713" fill="#263238"/>
<path d="M522.842 44.707C522.704 45.4949 522.375 46.2448 521.877 46.9022C520.778 48.5551 519.265 49.9488 517.462 50.9699C515.659 51.991 513.616 52.6107 511.499 52.7785C510.631 52.8941 509.745 52.8329 508.906 52.5992C508.906 52.4924 509.9 52.5497 511.442 52.3418C513.449 52.0638 515.373 51.4169 517.095 50.4407C518.818 49.4645 520.304 48.1794 521.462 46.6638C522.356 45.4966 522.733 44.665 522.842 44.707Z" fill="#455A64"/>
<path d="M463.549 57.9338C465.235 55.9056 467.354 54.2077 469.779 52.9417C472.204 51.6757 474.885 50.8677 477.662 50.566C476.833 50.4204 475.981 50.4294 475.157 50.5927C471.093 51.145 467.408 53.0688 464.835 55.9808C464.265 56.5454 463.827 57.21 463.549 57.9338Z" fill="#131A46"/>
<path d="M457.846 228.1C482.006 234.888 519.33 234.951 530.143 228.6L523.742 189.468C523.742 189.468 535.458 162.923 533.94 153.926C531.763 140.947 508.868 114.506 508.868 114.506L481.114 112.734C475.739 113.562 470.632 115.605 466.264 118.674C461.714 122.055 458.319 126.561 456.507 131.623C454.695 136.685 454.547 142.076 456.082 147.116L469.569 184.801L457.846 228.1Z" fill="#643691"/>
<path d="M501.685 437.707V416.987L476 416V453L539 452.507V447.573L501.685 437.707Z" fill="#78471F"/>
<path d="M508.5 418.5C505.094 418.248 501 423 501 423C501 423 505.62 427.879 509 427C511.809 426.269 514.788 424.294 514 421.5C513.336 419.145 510.94 418.68 508.5 418.5Z" stroke="#263238"/>
<path d="M492.5 418C495.998 417.61 500 423 500 423C500 423 495.641 427.261 492.5 426.5C489.679 425.816 486.663 423.779 487.5 421C488.157 418.82 490.237 418.252 492.5 418Z" stroke="#263238"/>
<path d="M494.5 433.5H501" stroke="#263238"/>
<path d="M508 446.241L511.844 441" stroke="#263238"/>
<path d="M500 443.657L504.535 439" stroke="#263238"/>
<path opacity="0.6" d="M519 449H584V453L519 453.5V449Z" fill="white"/>
<path d="M530 407.5L504 390.5C505.432 387.845 526.624 326.14 531.909 319.623C527.26 315.035 510.5 290 510.5 290L504 234L527 229C527 229 569.5 307.5 568.5 315C567.5 322.5 530 407.5 530 407.5Z" fill="#263238"/>
<path d="M439.047 140.446C439.047 140.446 451.625 130.279 460.048 124.253C464.888 120.79 472.621 115.641 472.621 115.641C500.203 117.077 492.051 131.658 491.199 146.482C490.346 161.305 469.887 158.408 454.874 168.954L439.047 140.446Z" fill="#643691"/>
<path d="M456.549 224L459.5 213L425.549 159C425.549 159 411.049 165 412.049 172C413.049 179 456.549 224 456.549 224Z" fill="#FFBE9D"/>
<path d="M485.5 218.5L476.5 213.5H470L459 213L453.5 220L458 226H466L470 227.5L471 229.5H474L472 226L467.5 223.5L473 224.5L476 227.5H479.5L476 223.5L470 220L476.5 221L481.5 225L485.5 224.5L478 218.5L471 217L476 216.5L482 219.5L485.5 218.5Z" fill="#FFBE9D"/>
<path d="M451.5 219L459.5 212.5L457 208.5L448.5 215.5L451.5 219Z" fill="#263238"/>
<rect x="448.583" y="213.429" width="7.76769" height="7.40059" rx="1" transform="rotate(-39.4418 448.583 213.429)" fill="#263238"/>
<path d="M447.37 240.588C424.788 236.283 424.766 232.696 429.339 212.872L433.573 214.365C431.436 231.889 431.885 230.101 447.444 235.685L447.37 240.588Z" fill="#263238"/>
<path d="M447.499 250.821C415.379 247.033 409.694 237.408 419.676 210.055L425.37 211.788C416.83 236.255 421.752 240.693 447.385 245.628L447.499 250.821Z" fill="#263238"/>
<path d="M448.073 231.635C435.004 226.285 437.328 227.313 437.254 215.005L441.212 216.071C442.546 227.451 441.848 221.331 448.702 227.584L448.073 231.635Z" fill="#263238"/>
<path d="M514.971 241C515.139 262.231 514.594 273.038 512.976 291.208C511.951 300.32 511.219 305.13 509.384 312.726L503 395" stroke="#455A64"/>
<path d="M434.5 173.5L430.5 171.5" stroke="#EB996E"/>
<path d="M488 151L462.5 164.483L454.5 168.5L439.5 140.5L462 122.483C472.184 112.511 489.714 113.508 494 126C498.286 138.492 492.15 147.812 488 151Z" stroke="#263238" stroke-width="0.7"/>
<path d="M496 134.5C508.359 134.196 514.236 133.915 521.5 131M464 121.5C465.144 136.278 470.012 142.785 482 153" stroke="white" stroke-width="0.7"/>
<path d="M465.5 169.5C491.268 174.772 505.492 174.677 530.5 169.5" stroke="white" stroke-width="0.7"/>
<path d="M464 206C489.301 212.406 502.812 211.7 526 206" stroke="white" stroke-width="0.7"/>
<ellipse cx="579" cy="446.5" rx="8" ry="7.5" fill="black"/>
<circle cx="584" cy="416" r="5" fill="white"/>
<path d="M509 324H529.5" stroke="black"/>
<path d="M566 323H602.5" stroke="black"/>
</svg>
