<svg width="600" height="622" viewBox="0 0 600 622" fill="none" xmlns="http://www.w3.org/2000/svg">
<path d="M485.716 356.305C457.512 325.783 446.394 305.381 440.428 259.263C391.093 265.911 324.64 285.603 312.53 297.127C300.419 308.651 164.905 431.6 164.905 431.6L182.212 468.686C262.275 456.176 359.014 437.515 376.422 434.036C393.831 430.557 458.106 396.453 485.716 356.305Z" fill="#6925A6"/>
<path d="M499.889 343.893C471.627 314.89 462.964 295.701 461.324 255.757C461.324 255.757 533.185 244.959 544.673 271.212C556.161 297.465 499.889 343.893 499.889 343.893Z" fill="#6925A6"/>
<path d="M241.975 472.165L306.519 463.359C334.251 510.494 331.156 528.279 294.973 525.286C258.79 522.293 154 513.435 154 513.435C224.43 505.405 272.032 502.723 241.975 472.165Z" fill="#6925A6"/>
<path d="M201.972 380.037L250.451 335.821C233.187 283.776 217.873 274.628 196.628 304.561C175.383 334.494 113.998 421.308 113.998 421.308C165.717 372.036 198.619 336.952 201.972 380.037Z" fill="#6925A6"/>
<path d="M156.609 496.737C165.764 488.322 138.896 430.475 127.825 433.011C116.754 435.546 59.8522 501.203 53.6329 506.435C53.6329 506.435 147.453 505.153 156.609 496.737Z" fill="#6925A6"/>
<path d="M146.033 488.695C152.897 482.798 135.375 445.21 127.318 447.26C119.261 449.31 76.1784 494.842 71.5313 498.525C71.5313 498.525 139.169 494.592 146.033 488.695Z" fill="white"/>
<path d="M283.927 196.574C287.426 188.911 299.514 186.084 305.121 185.627C305.121 185.627 324.632 179.812 319.25 181.522C313.867 183.233 311.513 190.074 311.849 191.443C312.185 192.811 313.082 197.6 314.204 200.337L306.466 265.675C299.738 266.245 285.004 266.085 279.89 260.886C273.499 254.386 277.872 243.782 283.927 237.282C288.772 232.082 285.946 217.783 283.927 211.284C282.469 209.573 280.429 204.237 283.927 196.574Z" fill="#D0B58F"/>
<path d="M292.555 246.518C292.211 246.944 291.97 247.434 291.849 247.954C291.659 248.5 291.505 249.056 291.391 249.62C291.302 249.986 291.308 250.366 291.406 250.729C291.473 250.951 291.606 251.152 291.79 251.307C291.975 251.463 292.202 251.567 292.448 251.609C292.587 251.629 292.729 251.622 292.864 251.586C293 251.55 293.125 251.487 293.231 251.401C293.416 251.243 293.543 251.035 293.592 250.806C293.66 250.45 293.665 250.085 293.605 249.727C293.542 249.153 293.426 248.586 293.257 248.031C293.154 247.503 292.916 247.006 292.562 246.581C292.603 247.101 292.701 247.616 292.854 248.118C292.961 248.664 293.033 249.215 293.07 249.769C293.107 250.073 293.096 250.381 293.038 250.682C292.963 250.961 292.779 251.113 292.535 251.074C291.934 250.977 291.798 250.291 291.921 249.696C292.019 249.08 292.139 248.521 292.247 248.053C292.419 247.555 292.523 247.04 292.555 246.518Z" fill="#263238"/>
<path d="M327.635 149.914C325.341 144.785 325.221 135.868 328.727 131.179C332.233 126.491 338.797 123.394 344.827 122.196C345.821 121.923 346.881 121.935 347.867 122.232C348.351 122.397 348.749 122.725 348.982 123.151C349.214 123.576 349.263 124.068 349.119 124.526C350.29 123.765 351.588 123.189 352.963 122.821C353.652 122.643 354.379 122.625 355.078 122.767C355.778 122.909 356.429 123.208 356.974 123.637C357.233 123.861 357.44 124.131 357.585 124.43C357.73 124.729 357.81 125.052 357.819 125.379C357.829 125.707 357.768 126.033 357.64 126.339C357.512 126.644 357.32 126.924 357.074 127.16C357.921 126.874 358.84 126.824 359.717 127.014C360.595 127.205 361.393 127.629 362.013 128.234C362.633 128.839 363.049 129.598 363.208 130.419C363.367 131.239 363.263 132.084 362.909 132.851C362.087 134.424 360.943 135.836 359.542 137.008C358.982 137.469 358.569 138.062 358.345 138.724C358.121 139.385 358.096 140.09 358.271 140.764" fill="#263238"/>
<path d="M329.081 140.511L327.485 171.906C327.421 173.171 327.636 174.435 328.116 175.622C328.596 176.808 329.332 177.891 330.279 178.807C331.227 179.722 332.365 180.45 333.625 180.946C334.886 181.442 336.242 181.696 337.612 181.693C340.211 181.686 342.706 180.755 344.582 179.093C346.458 177.432 347.571 175.167 347.691 172.767C347.808 170.404 347.911 168.434 347.94 168.191C347.94 168.191 356.624 167.815 357.65 159.931C358.146 156.121 358.476 148.198 358.686 141.026C358.792 137.311 357.382 133.696 354.735 130.899C352.089 128.102 348.4 126.328 344.403 125.931L343.58 125.849C334.64 125.446 329.276 132.238 329.081 140.511Z" fill="#FFBE9D"/>
<path d="M347.967 168.082C344.017 167.757 340.26 166.352 337.176 164.047C337.176 164.047 338.879 168.986 347.48 169.126L347.967 168.082Z" fill="#EB996E"/>
<path d="M355.581 146.067C355.55 146.361 355.396 146.633 355.152 146.823C354.907 147.014 354.592 147.109 354.273 147.087C354.116 147.083 353.962 147.05 353.819 146.99C353.677 146.93 353.549 146.845 353.443 146.738C353.336 146.632 353.254 146.507 353.201 146.371C353.148 146.235 353.125 146.09 353.134 145.945C353.165 145.651 353.319 145.38 353.563 145.189C353.807 144.999 354.122 144.903 354.441 144.924C354.597 144.928 354.752 144.961 354.894 145.021C355.037 145.081 355.165 145.166 355.272 145.273C355.378 145.379 355.46 145.504 355.513 145.641C355.566 145.777 355.589 145.922 355.581 146.067Z" fill="#263238"/>
<path d="M356.4 144.72C356.232 144.851 355.38 144.128 354.068 144C352.755 143.872 351.723 144.382 351.598 144.22C351.536 144.147 351.72 143.897 352.172 143.658C352.782 143.35 353.48 143.225 354.171 143.299C354.854 143.364 355.497 143.629 356.006 144.056C356.377 144.382 356.481 144.661 356.4 144.72Z" fill="#263238"/>
<path d="M342.664 145.198C342.633 145.492 342.479 145.763 342.234 145.954C341.99 146.144 341.675 146.239 341.356 146.218C341.199 146.214 341.045 146.181 340.902 146.121C340.76 146.061 340.632 145.976 340.526 145.869C340.419 145.763 340.337 145.638 340.284 145.502C340.231 145.366 340.208 145.221 340.217 145.076C340.248 144.782 340.402 144.511 340.647 144.321C340.891 144.13 341.206 144.035 341.525 144.056C341.681 144.06 341.835 144.093 341.978 144.153C342.12 144.213 342.248 144.299 342.355 144.405C342.461 144.511 342.543 144.636 342.596 144.772C342.649 144.909 342.672 145.053 342.664 145.198Z" fill="#263238"/>
<path d="M343.474 143.661C343.306 143.791 342.455 143.068 341.143 142.94C339.83 142.812 338.797 143.324 338.672 143.161C338.61 143.088 338.794 142.838 339.247 142.598C339.857 142.291 340.555 142.165 341.246 142.239C341.929 142.305 342.571 142.57 343.081 142.996C343.45 143.323 343.556 143.602 343.474 143.661Z" fill="#263238"/>
<path d="M347.189 153.131C347.904 153.001 348.634 152.953 349.362 152.989C349.701 152.989 350.025 152.96 350.106 152.756C350.171 152.438 350.13 152.11 349.988 151.815C349.761 151.032 349.522 150.212 349.273 149.356C348.587 147.266 348.083 145.128 347.767 142.962C348.633 144.996 349.322 147.09 349.826 149.226C350.06 150.087 350.284 150.91 350.498 151.693C350.665 152.088 350.677 152.525 350.53 152.927C350.468 153.03 350.382 153.119 350.277 153.186C350.172 153.254 350.052 153.299 349.926 153.318C349.735 153.346 349.541 153.352 349.348 153.335C348.622 153.352 347.897 153.283 347.189 153.131Z" fill="#263238"/>
<path d="M343.23 153.586C343.445 153.596 343.294 154.913 344.405 155.97C345.515 157.027 347.047 157.032 347.037 157.217C347.048 157.301 346.669 157.439 346.026 157.391C345.191 157.319 344.409 156.976 343.82 156.424C343.255 155.893 342.934 155.18 342.927 154.435C342.937 153.878 343.133 153.565 343.23 153.586Z" fill="#263238"/>
<path d="M344.376 138.941C344.209 139.258 342.917 138.971 341.357 138.988C339.796 138.977 338.507 139.27 338.338 138.954C338.263 138.802 338.516 138.514 339.055 138.245C339.771 137.921 340.557 137.751 341.355 137.749C342.152 137.747 342.939 137.913 343.657 138.235C344.189 138.502 344.443 138.789 344.376 138.941Z" fill="#263238"/>
<path d="M356.327 141.16C356.065 141.414 355.198 141.038 354.109 140.915C353.027 140.757 352.079 140.899 351.901 140.59C351.825 140.441 352.001 140.179 352.435 139.959C353.012 139.7 353.658 139.606 354.293 139.688C354.928 139.769 355.523 140.024 356.001 140.418C356.353 140.74 356.446 141.036 356.327 141.16Z" fill="#263238"/>
<path d="M329.097 146.426C328.956 146.353 323.417 144.236 322.974 149.653C322.531 155.069 328.504 154.362 328.527 154.208C328.549 154.054 329.097 146.426 329.097 146.426Z" fill="#FFBE9D"/>
<path d="M326.905 152.031C326.879 152.013 326.797 152.091 326.622 152.151C326.372 152.231 326.097 152.218 325.857 152.114C325.497 151.865 325.215 151.533 325.04 151.15C324.865 150.768 324.803 150.349 324.861 149.937C324.884 149.472 325.019 149.017 325.256 148.606C325.325 148.441 325.436 148.294 325.58 148.177C325.724 148.061 325.897 147.978 326.083 147.937C326.203 147.916 326.326 147.935 326.432 147.99C326.539 148.045 326.621 148.132 326.665 148.237C326.73 148.393 326.684 148.498 326.716 148.511C326.747 148.524 326.848 148.429 326.82 148.202C326.798 148.065 326.726 147.94 326.617 147.847C326.465 147.723 326.267 147.659 326.065 147.669C325.822 147.697 325.59 147.783 325.393 147.917C325.195 148.051 325.038 148.229 324.936 148.435C324.648 148.887 324.484 149.397 324.459 149.92C324.391 150.4 324.477 150.888 324.708 151.323C324.939 151.757 325.303 152.119 325.756 152.363C325.91 152.416 326.074 152.437 326.238 152.423C326.402 152.41 326.56 152.362 326.701 152.285C326.883 152.162 326.924 152.042 326.905 152.031Z" fill="#EB996E"/>
<path d="M363.268 131.074C363.371 138.143 353.776 140.413 350 136.198C348.251 134.248 346.783 131.862 344.266 130.862C343.404 130.555 342.484 130.409 341.56 130.434C340.636 130.458 339.726 130.652 338.884 131.004L338.833 131.024C337.603 131.608 336.536 132.448 335.715 133.478C334.895 134.507 334.344 135.699 334.106 136.959C333.297 140.393 333.646 143.497 332.412 146.615C332.287 147.08 331.997 147.493 331.588 147.789C330.84 148.212 329.851 147.725 329.317 147.082C328.547 145.988 328.139 144.71 328.144 143.405C327.873 140.453 328.239 137.481 329.221 134.662C330.218 131.835 332.09 129.339 334.605 127.485C337.851 125.259 341.905 124.287 345.912 124.772C349.9 125.284 353.611 126.945 356.518 129.519C357.924 130.649 359.003 132.084 359.657 133.695" fill="#263238"/>
<path d="M357.389 126.774C357.662 126.744 357.939 126.774 358.196 126.863C358.916 127.073 359.558 127.465 360.05 127.995C360.794 128.783 361.227 129.781 361.278 130.826C361.288 132.109 360.785 133.351 359.866 134.314C358.975 135.275 357.813 135.989 356.508 136.375C355.459 136.682 354.362 136.827 353.262 136.805C352.527 136.793 351.795 136.72 351.074 136.588C350.805 136.559 350.543 136.489 350.298 136.382C350.31 136.306 351.437 136.538 353.262 136.512C354.323 136.493 355.374 136.324 356.38 136.013C357.6 135.63 358.687 134.951 359.527 134.047C360.377 133.161 360.854 132.022 360.871 130.837C360.841 129.871 360.469 128.94 359.814 128.187C359.374 127.672 358.801 127.268 358.147 127.013C357.89 126.946 357.637 126.866 357.389 126.774Z" fill="#455A64"/>
<path d="M353.671 124.017C353.671 123.996 353.891 123.971 354.222 124.147C354.445 124.284 354.634 124.464 354.775 124.675C354.916 124.886 355.006 125.122 355.039 125.369C355.093 126.094 354.875 126.815 354.421 127.409C353.932 128.136 353.334 128.795 352.645 129.367C351.397 130.411 349.887 131.153 348.252 131.525C347.59 131.719 346.891 131.778 346.201 131.7C346.193 131.624 346.981 131.586 348.168 131.239C349.714 130.8 351.138 130.055 352.342 129.056C353 128.509 353.58 127.886 354.068 127.203C354.491 126.683 354.72 126.05 354.72 125.4C354.687 124.968 354.471 124.565 354.119 124.279C353.862 124.086 353.663 124.052 353.671 124.017Z" fill="#455A64"/>
<path d="M402.343 167.839L381.149 172.286L384.513 187.338L407.389 180.496L402.343 167.839Z" fill="#FFBE9D"/>
<path d="M327.777 174.497L316.581 186.16C316.581 186.16 310.6 226.435 310.174 229.594C309.748 232.753 308.612 242.868 308.612 245.633C308.612 248.398 306.13 268.173 306.13 268.173C306.13 268.173 353.633 277.291 361.581 268.173L359.108 251.241L361.261 209.235C361.261 209.235 364.825 180.08 348.192 173.312C348.19 173.314 337.676 179.174 327.777 174.497Z" fill="#643691"/>
<path d="M351.361 216.464C353.675 216.464 355.551 211.246 355.551 204.809C355.551 198.371 353.675 193.153 351.361 193.153C349.048 193.153 347.172 198.371 347.172 204.809C347.172 211.246 349.048 216.464 351.361 216.464Z" fill="#FAFAFA"/>
<path d="M363.319 382.326C362.534 381.869 360.561 381.094 358.946 381.641" stroke="#263238" stroke-width="0.7"/>
<path d="M362.646 315.619L372.402 313.909" stroke="#455A64"/>
<path d="M357.264 176.049L380.812 171.26L385.522 191.101C381.261 193.381 370.72 197.805 362.646 197.258C354.572 196.711 349.414 189.96 347.844 186.653L357.264 176.049Z" fill="#643691"/>
<path d="M331.306 186.678L336.271 202.432L318.112 206.273C315.911 203.469 311.589 196.493 311.903 191.018C312.217 185.544 318.312 181.835 321.32 180.664L331.306 186.678Z" fill="#643691"/>
<path d="M326.01 210.552L340.02 201.982L356.185 237.625L375.724 269.823L368.47 274.942L344.243 242.276L326.01 210.552Z" fill="#FFBE9D"/>
<path d="M429.591 155.524L401.669 168.181C402.903 172.172 405.706 180.222 407.052 180.496C408.398 180.77 425.779 168.295 434.301 162.023L429.591 155.524Z" fill="#FFBE9D"/>
<rect width="12.1138" height="18.4679" rx="3" transform="matrix(0.992076 0.125635 -0.121563 0.992584 431.5 139.104)" fill="black"/>
<path d="M443.048 149.272C443.496 150.755 443.653 154.814 440.693 159.193C441.029 156.912 441.769 151.872 442.039 149.956C442.308 148.041 442.823 148.702 443.048 149.272Z" fill="#FFBE9D"/>
<path d="M429.928 151.761V155.182L432.619 153.129C433.628 152.673 435.916 151.624 436.992 151.077C438.069 150.529 437.665 150.165 437.329 150.05L429.928 151.761Z" fill="#FFBE9D"/>
<path d="M429.591 156.167L429.255 156.186L433.985 162.422L440.847 158.598L440.808 157.915L430.694 157.816L430.32 157.153L429.591 156.167Z" fill="#FFBE9D"/>
<path d="M428.246 156.208C428.134 155.296 427.977 153.335 428.246 152.787C428.515 152.24 429.479 151.875 429.928 151.761L429.928 156.892L428.246 156.208Z" fill="#FFBE9D"/>
<path d="M351.208 174.68L357.264 176.049C362.085 183.575 370.518 199.516 365.674 203.073C362.986 205.047 361.762 206.2 361.3 206.835V207.521C361.051 207.521 360.93 207.344 361.3 206.835V196.916C360.403 191.785 357.129 180.154 351.208 174.68Z" fill="#D0B58F"/>
<path d="M323.623 179.47C331.428 182.206 334.276 185.855 334.725 187.337L340.78 201.021L323.623 211.967C319.362 206.722 311.109 195.342 312.185 191.785" stroke="black" stroke-width="0.5"/>
<path d="M403.351 167.839C403.351 171.123 404.024 172.172 404.361 172.286" stroke="#EB996E"/>
<path d="M369.711 277.648L368.701 274.569L375.766 269.78L382.158 272.175C386.755 272.745 394.739 274.638 389.895 277.648C383.84 281.411 384.849 280.385 382.831 281.411C381.216 282.232 373.411 279.244 369.711 277.648Z" fill="#FFBE9D"/>
<path d="M373.747 314.251L362.646 315.277L373.747 314.935V314.251Z" fill="#455A64"/>
<path d="M309.157 299.541C303.237 298.173 305.345 278.446 307.139 268.754L372.066 289.621L363.992 315.619C348.181 310.83 315.078 300.91 309.157 299.541Z" fill="#263238"/>
<path d="M342.462 365.221L362.31 315.619H395.278L367.356 377.194L342.462 365.221Z" fill="#263238"/>
<path d="M395.95 314.935C402.679 299.883 382.158 291.787 371.056 289.621L363.319 314.935C371.393 321.206 389.222 329.987 395.95 314.935Z" fill="#263238"/>
<path d="M321.941 270.817L306.802 268.422L319.922 273.895L346.835 281.763L364.328 275.948C363.319 272.527 361.3 266.164 361.3 268.08C361.3 269.996 353.675 271.615 349.863 272.185H339.434L330.015 271.501L321.941 270.817Z" fill="#263238"/>
<rect width="22.2718" height="17.907" transform="matrix(0.901286 0.433225 -0.421536 0.906812 346.061 366.982)" fill="#78471F"/>
<rect width="22.2718" height="17.907" transform="matrix(0.901286 0.433225 -0.421536 0.906812 346.061 366.982)" fill="#78471F"/>
<path d="M381.148 403.535C383.571 402.714 369.598 389.737 362.31 383.352L357.936 392.588C364.664 396.579 378.726 404.356 381.148 403.535Z" fill="#78471F"/>
<path d="M362.148 375.523C363.797 375.807 364.605 377.747 364.803 378.682C360.31 378.498 359.425 377.019 359.544 376.303C359.725 375.925 360.499 375.239 362.148 375.523Z" stroke="#263238" stroke-width="0.7"/>
<path d="M363.319 382.326C362.198 382.098 359.888 381.778 359.618 382.326" stroke="#263238"/>
<path d="M369.718 390.426C368.713 390.98 366.736 392.236 366.873 392.832" stroke="#263238"/>
<path d="M365.377 386.355C364.282 386.691 362.097 387.517 362.113 388.129" stroke="#263238"/>
<rect width="47.2497" height="2.04605" transform="matrix(0.896655 0.44273 -0.430902 0.902399 338.634 382.668)" fill="#78471F"/>
<rect opacity="0.6" width="47.2556" height="2.04579" transform="matrix(0.892397 0.451251 -0.439305 0.898338 338.651 382.668)" fill="#C4C4C4"/>
<rect width="10.7669" height="1.36811" transform="matrix(0.994771 -0.102132 0.0988043 0.995107 361.973 314.666)" fill="#455A64"/>
<path d="M314.54 175.712C314.54 181.002 310.172 185.291 304.784 185.291C299.396 185.291 295.028 181.002 295.028 175.712C295.028 170.422 299.396 166.134 304.784 166.134C310.172 166.134 314.54 170.422 314.54 175.712Z" fill="#78471F"/>
<path d="M327.996 162.023L304.111 166.128L305.121 185.627L321.605 180.838L327.66 174.68L327.996 162.023Z" fill="#78471F"/>
<path d="M304.111 166.47C311.849 167.839 318.913 178.101 305.457 185.285" stroke="#263238" stroke-width="0.7"/>
<path d="M325.035 177.008C328.749 171.199 324.447 165.35 320.595 163.392L327.323 162.365L327.996 162.708L327.66 174.338L325.035 177.008C324.208 178.301 322.983 179.592 321.268 180.838L325.035 177.008Z" fill="#263238"/>
<path d="M312.522 199.653C312.522 199.653 300.411 199.653 298.729 202.047C297.047 204.442 302.766 215.389 298.729 218.125C294.692 220.862 287.964 218.125 287.964 218.125" stroke="#263238"/>
<path d="M298.393 219.836L293.346 264.648" stroke="#263238"/>
<path d="M281.572 244.466L294.692 246.176" stroke="#263238"/>
<path d="M326.314 176.049L323.286 179.127C327.054 179.401 332.482 184.259 334.724 186.653L340.78 201.021L340.107 201.705C340.78 203.871 342.327 208.273 343.134 208.547C343.942 208.82 344.144 204.784 344.144 202.731C343.359 199.538 341.385 191.921 339.77 186.995C338.156 182.069 330.127 177.645 326.314 176.049Z" fill="#D0B58F"/>
<path d="M308.877 240.62C320.9 235.397 325.537 230.645 331.108 219.836L334.388 225.032C327.594 237.711 321.441 242.086 308.148 247.202L308.877 240.62Z" fill="#D0B58F"/>
<path d="M369.711 376.854C368.365 375.76 366.683 377.538 366.01 378.565C367.355 379.12 368.146 379.263 369.711 378.907C370.271 378.679 371.056 377.949 369.711 376.854Z" stroke="#263238" stroke-width="0.7"/>
<path d="M563.321 19.9543H468C468 19.9543 476.43 6.00831 500.965 8.03764C524.398 9.97543 525.59 1.17146 537.504 0.0938476C549.418 -0.98376 559.349 7.3167 563.321 19.9543Z" fill="#F5F5F5"/>
<path d="M152.185 86.7053L51.0004 84.6188C51.0004 84.6188 60.3172 69.9977 86.3082 72.6888C111.131 75.2579 112.629 65.9447 125.304 65.0597C137.98 64.1748 148.301 73.2038 152.185 86.7053Z" fill="#F5F5F5"/>
<path d="M556.566 121.958H509.001C509.001 121.958 513.196 115 525.45 116.013C537.144 116.98 537.738 112.589 543.683 112.047C549.629 111.506 554.584 115.652 556.566 121.958Z" fill="#F5F5F5"/>
</svg>
