<svg width="51" height="50" viewBox="0 0 51 50" fill="none" xmlns="http://www.w3.org/2000/svg">
<path d="M47.1589 25.2366C47.1589 37.3686 37.5456 47.1655 25.7334 47.1655C13.9213 47.1655 4.30804 37.3686 4.30804 25.2366C4.30804 13.1045 13.9213 3.30762 25.7334 3.30762C37.5456 3.30762 47.1589 13.1045 47.1589 25.2366Z" fill="white" stroke="black" stroke-width="2"/>
<path d="M40.0007 25.3847C40.0007 33.3291 33.5604 39.7693 25.6159 39.7693C17.6715 39.7693 11.2312 33.3291 11.2312 25.3847C11.2312 17.4402 17.6715 11 25.6159 11C33.5604 11 40.0007 17.4402 40.0007 25.3847Z" fill="white" stroke="black" stroke-width="2"/>
<line x1="26.6159" x2="26.6159" y2="19.2308" stroke="black" stroke-width="2"/>
<line x1="26.616" y1="30.769" x2="26.616" y2="49.9999" stroke="black" stroke-width="2"/>
<line x1="50.9926" y1="26.5317" x2="31.7619" y2="26.3848" stroke="black" stroke-width="2"/>
<line x1="20.2231" y1="26.5317" x2="0.992374" y2="26.3848" stroke="black" stroke-width="2"/>
</svg>
